<svg width="24" height="29" viewBox="0 0 24 29" fill="none" xmlns="http://www.w3.org/2000/svg">
<g clip-path="url(#clip0_14_2182)">
<path d="M19.618 14.9112C19.6573 19.1404 23.3282 20.5478 23.3688 20.5657C23.3378 20.665 22.7823 22.5714 21.4348 24.5405C20.27 26.243 19.0611 27.9392 17.1567 27.9743C15.2855 28.0088 14.6837 26.8647 12.5444 26.8647C10.4056 26.8647 9.73709 27.9392 7.96574 28.0088C6.12751 28.0784 4.72772 26.1678 3.55323 24.4716C1.15331 21.002 -0.680729 14.6672 1.78192 10.3911C3.00531 8.2676 5.1916 6.9229 7.56462 6.88842C9.36972 6.85399 11.0735 8.10283 12.177 8.10283C13.2798 8.10283 15.3502 6.60099 17.5268 6.82155C18.4381 6.85948 20.9958 7.18963 22.6382 9.59369C22.5059 9.67573 19.5863 11.3754 19.618 14.9112V14.9112ZM16.1012 4.52607C17.0771 3.34475 17.734 1.70024 17.5548 0.0639648C16.1481 0.120503 14.447 1.00137 13.438 2.18204C12.5337 3.22758 11.7418 4.90103 11.9555 6.50492C13.5234 6.62624 15.1252 5.70815 16.1012 4.52607" fill="white"/>
</g>
<defs>
<clipPath id="clip0_14_2182">
<rect width="22.7556" height="28" fill="white" transform="translate(0.613281 0.0639648)"/>
</clipPath>
</defs>
</svg>
