<svg width="29" height="29" viewBox="0 0 29 29" fill="none" xmlns="http://www.w3.org/2000/svg">
<g clip-path="url(#clip0_14_2177)">
<path d="M27.4449 28.0641C28.2982 28.0641 28.9902 27.3722 28.9902 26.5187V1.60932C28.9902 0.755762 28.2982 0.0639648 27.4449 0.0639648H2.53559C1.68192 0.0639648 0.990234 0.755762 0.990234 1.60932V26.5187C0.990234 27.3722 1.68192 28.0641 2.53559 28.0641H27.4449Z" fill="white"/>
<path d="M16.8311 28.0641V17.221H20.4707L21.0156 12.9953H16.8311V10.2972C16.8311 9.07375 17.1709 8.23998 18.9254 8.23998L21.1631 8.239V4.45955C20.7759 4.40803 19.4476 4.29297 17.9024 4.29297C14.676 4.29297 12.4673 6.26227 12.4673 9.87886V12.9953H8.81836V17.221H12.4673V28.0641H16.8311Z" fill="#1877F2"/>
</g>
<defs>
<clipPath id="clip0_14_2177">
<rect x="0.990234" y="0.0639648" width="28" height="28" rx="14" fill="white"/>
</clipPath>
</defs>
</svg>
