<svg width="366" height="200" viewBox="0 0 366 200" fill="none" xmlns="http://www.w3.org/2000/svg">
<rect x="0.478516" width="365" height="200" rx="16" fill="#E9EEF4"/>
<path opacity="0.2" fill-rule="evenodd" clip-rule="evenodd" d="M182.978 71.0947C240.766 71.0947 287.69 95.9569 287.69 126.643C287.69 157.328 240.766 182.19 182.978 182.19C125.19 182.19 78.2656 157.328 78.2656 126.643C78.2656 95.9569 125.19 71.0947 182.978 71.0947Z" fill="#002654"/>
<path d="M244.909 156.209C240.205 156.209 235.502 155.201 231.358 152.737C230.35 152.065 229.902 150.721 230.574 149.713C231.246 148.705 232.59 148.257 233.598 148.929C242.893 154.417 255.436 151.169 263.388 146.69C270.891 142.434 275.707 136.386 275.707 131.347C275.707 127.763 273.355 124.627 268.763 122.051L190.929 78.1506C174.802 69.0793 145.572 78.2626 139.637 88.5658C137.173 92.8215 139.077 96.7412 145.348 100.325C146.468 100.997 146.804 102.341 146.132 103.349C145.46 104.469 144.116 104.805 143.108 104.133C131.237 97.1892 134.037 89.3498 135.829 86.326C143.444 73.111 175.474 64.2636 193.169 74.2309L270.891 118.02C278.506 122.387 280.186 127.539 280.186 131.235C280.186 138.066 274.699 145.234 265.627 150.497C260.14 153.633 252.524 156.209 244.909 156.209Z" fill="#CE1126"/>
<path opacity="0.49" fill-rule="evenodd" clip-rule="evenodd" d="M248.605 61.1279C255.772 88.2299 264.06 111.524 275.819 128.659C278.73 143.778 248.941 158.225 232.59 148.705C232.59 124.963 232.59 103.237 232.702 79.4946C240.205 77.8147 247.373 70.5352 248.605 61.1279Z" fill="white"/>
<path opacity="0.5" fill-rule="evenodd" clip-rule="evenodd" d="M232.59 79.4943L240.765 74.6786C244.573 72.4388 246.925 68.6311 247.149 64.2634C247.373 59.8958 245.357 56.2 241.661 54.0722L189.585 24.5064C178.61 18.3468 165.843 18.5708 154.308 25.1783L145.908 29.994L232.59 79.4943Z" fill="white"/>
<path opacity="0.49" fill-rule="evenodd" clip-rule="evenodd" d="M144.229 99.317C140.757 99.429 137.621 94.0534 137.845 91.3656C140.757 78.1506 140.757 52.9525 142.885 31.2261C142.885 54.8563 144.229 75.7987 144.229 99.317Z" fill="white"/>
<path opacity="0.49" fill-rule="evenodd" clip-rule="evenodd" d="M146.357 79.4946C146.133 63.0318 146.021 46.457 145.797 29.9942C155.428 22.6028 165.619 19.803 176.371 20.251C207.392 31.8981 228.111 46.457 248.605 61.1279C254.093 82.4064 261.036 102.901 270.78 120.595C244.798 105.925 218.032 90.8057 192.049 76.1348C179.282 68.8554 158.9 72.2151 146.357 79.4946Z" fill="white"/>
<path d="M232.588 81.7343C231.804 81.7343 231.133 81.2864 230.685 80.6144C230.013 79.6065 230.461 78.1506 231.468 77.5906L239.644 72.775C242.892 70.8712 244.795 67.7354 244.907 64.1516C245.019 60.5679 243.452 57.6561 240.54 55.9763L188.464 26.4105C178.272 20.5869 166.177 20.8109 155.426 27.0824L145.571 32.794C144.451 33.4659 143.107 33.018 142.547 32.01C141.987 30.8901 142.323 29.5462 143.331 28.9863L153.186 23.2747C165.393 16.2192 179.056 15.9952 190.704 22.6027L242.78 52.1685C247.259 54.6324 249.611 59.112 249.499 64.3756C249.275 69.5273 246.587 74.0069 242.108 76.6947L233.932 81.5103C233.372 81.6223 232.924 81.7343 232.588 81.7343Z" fill="#CE1126"/>
<path d="M232.478 153.073C231.246 153.073 230.238 152.065 230.238 150.833V81.622L146.468 34.3615V102.228C146.468 103.46 145.46 104.468 144.228 104.468C142.996 104.468 141.988 103.46 141.988 102.228V30.5538C141.988 29.7698 142.436 28.9859 143.108 28.6499C143.78 28.202 144.676 28.202 145.348 28.6499L233.597 78.4862C234.269 78.9342 234.717 79.6061 234.717 80.3901V150.945C234.717 152.065 233.709 153.073 232.478 153.073Z" fill="#CE1126"/>
<path opacity="0.2" fill-rule="evenodd" clip-rule="evenodd" d="M166.853 116.115C145.574 117.571 130.567 128.658 133.367 140.977C136.167 153.297 155.654 162.144 176.932 160.688C198.21 159.232 213.217 148.145 210.418 135.826C207.618 123.507 188.019 114.659 166.853 116.115Z" fill="#002654"/>
<path fill-rule="evenodd" clip-rule="evenodd" d="M133.479 128.323L133.927 125.971L138.294 120.595L140.646 121.939L139.414 125.523L133.479 128.323Z" fill="#7F7F7F"/>
<path fill-rule="evenodd" clip-rule="evenodd" d="M149.718 119.363C148.822 119.811 146.023 121.827 145.015 122.163C142.551 122.835 141.767 119.139 143.895 118.467C145.687 117.907 146.023 118.467 148.374 117.124C148.822 117.907 149.046 118.467 149.718 119.363Z" fill="#3C3C3B"/>
<path fill-rule="evenodd" clip-rule="evenodd" d="M141.768 132.242C140.76 132.69 139.528 133.25 138.296 134.034C139.192 132.242 146.807 125.187 136.168 125.299C141.656 120.931 143.111 120.819 148.375 116.115C149.271 114.995 151.735 118.243 151.735 120.707C147.031 129.666 146.023 130.45 141.768 132.242Z" fill="#FF9D00"/>
<path d="M146.134 118.355C145.35 118.355 143.894 117.683 143.446 117.348C142.886 116.788 142.55 116.228 142.662 115.892C142.662 115.668 142.886 115.556 143.11 115.444C143.446 115.332 143.782 115.444 144.23 115.668C143.782 115.108 143.334 114.548 143.334 114.436C143.334 114.324 143.558 114.212 143.67 114.212C143.782 114.212 143.782 114.324 143.782 114.324C143.894 114.548 144.902 115.668 145.574 116.564C145.462 115.78 145.462 114.772 145.798 114.324C145.91 114.212 146.246 113.876 146.806 114.1C146.806 114.1 146.918 114.1 146.918 114.212C147.59 114.772 147.366 116.564 147.142 117.348C147.03 117.907 146.806 118.131 146.582 118.243C146.47 118.355 146.47 118.355 146.358 118.467C146.47 118.355 146.358 118.355 146.134 118.355ZM143.446 115.892C143.334 115.892 143.334 115.892 143.334 116.004C143.334 116.116 143.446 116.452 144.006 117.012C144.342 117.348 145.798 117.907 146.246 117.907L146.134 117.795C145.91 117.571 145.798 117.46 145.574 117.348L145.35 117.124C144.23 116.116 143.67 115.892 143.446 115.892ZM146.582 114.548C146.47 114.548 146.47 114.548 146.47 114.66C146.022 115.108 146.47 117.012 146.582 117.348L146.694 117.46C146.806 117.236 146.918 116.676 146.918 116.004C146.918 115.22 146.806 114.772 146.694 114.548C146.694 114.548 146.694 114.548 146.582 114.548Z" fill="white"/>
<path d="M146.583 118.131C146.471 118.131 146.471 118.131 146.359 118.019C146.247 117.907 146.247 117.795 146.247 117.683C146.247 117.459 145.911 117.011 145.687 116.563C145.015 115.331 144.455 114.435 144.679 113.875C144.679 113.763 144.903 113.651 145.015 113.651C145.127 113.651 145.239 113.875 145.239 113.987C145.127 114.323 145.911 115.555 146.247 116.227C146.807 117.347 147.031 117.571 146.807 117.795C146.807 118.019 146.695 118.131 146.583 118.131Z" fill="white"/>
<path fill-rule="evenodd" clip-rule="evenodd" d="M163.045 109.508C162.821 109.284 162.261 109.396 161.925 109.284C158.229 107.828 151.062 105.7 146.582 105.364C144.79 105.252 142.438 105.7 142.326 107.38L143.558 109.62H144.79L143.558 107.044C144.79 106.372 146.806 106.26 148.486 106.82L146.918 108.612L150.614 109.844L151.062 107.604L157.669 109.284L156.773 111.86H158.565L159.685 109.844L161.925 110.404L163.045 109.508Z" fill="#B2B2B2"/>
<path fill-rule="evenodd" clip-rule="evenodd" d="M162.708 109.732L163.268 109.172C163.156 108.948 162.372 108.052 161.812 107.828L147.925 104.244C144.566 103.349 141.318 105.7 141.878 106.596L143.334 109.396H144.566L143.11 106.932C143.334 103.349 159.46 107.604 162.708 109.732Z" fill="#7F7F7F"/>
<path fill-rule="evenodd" clip-rule="evenodd" d="M162.934 109.396C162.71 109.172 162.15 108.724 161.814 108.612L148.599 104.916C145.463 104.02 142.216 105.588 142.104 107.268L143.335 109.508H144.567L143.335 107.044C144.567 106.036 146.359 105.812 148.823 106.596L147.143 108.612L149.943 108.836L151.175 107.156L157.446 108.836L155.655 110.628L158.006 111.412L159.798 109.508L162.262 110.068L162.934 109.396Z" fill="white"/>
<path fill-rule="evenodd" clip-rule="evenodd" d="M147.031 113.875C145.351 112.307 143.111 112.307 142.44 111.635C141.992 111.187 140.984 109.844 141.992 108.612C142.887 107.38 145.463 107.268 147.143 107.604C148.935 107.94 149.383 108.836 152.295 109.62C153.863 110.068 158.342 110.068 159.462 111.523C160.582 112.755 160.358 113.875 159.686 114.547C158.454 115.891 157.558 116.339 155.767 117.235C154.759 117.683 151.959 121.715 149.831 124.738C148.935 124.85 147.367 122.275 147.703 121.267C148.935 118.019 146.807 117.795 145.127 118.691C147.255 116.675 147.703 114.435 147.031 113.875Z" fill="#3C3C3B"/>
<path d="M147.144 114.099H147.032C146.808 113.987 146.696 113.876 146.808 113.652C147.032 112.868 148.823 112.308 149.383 112.308C149.607 112.308 149.719 112.532 149.719 112.756C149.719 112.98 149.495 113.204 149.271 113.092C148.823 113.092 147.592 113.54 147.48 113.875C147.368 113.987 147.256 114.099 147.144 114.099Z" fill="white"/>
<path d="M147.48 114.883H147.368C147.144 114.771 147.032 114.547 147.144 114.323C147.48 113.539 149.159 113.203 149.831 113.315C150.055 113.315 150.167 113.539 150.167 113.763C150.167 113.987 149.943 114.099 149.719 114.099C149.271 113.987 148.039 114.323 147.927 114.659C147.816 114.771 147.703 114.883 147.48 114.883Z" fill="white"/>
<path d="M147.365 115.667C147.253 115.667 147.253 115.667 147.141 115.555C146.917 115.443 146.917 115.219 147.029 114.996C147.477 114.212 149.156 114.1 149.828 114.324C150.052 114.436 150.164 114.66 150.052 114.772C149.94 114.996 149.716 115.108 149.604 114.996C149.045 114.884 147.925 114.996 147.701 115.332C147.589 115.555 147.477 115.667 147.365 115.667Z" fill="white"/>
<path d="M147.142 116.451C147.03 116.451 147.03 116.451 146.918 116.339C146.694 116.227 146.694 116.003 146.806 115.779C147.366 114.995 148.934 114.995 149.718 115.331C149.942 115.443 150.054 115.667 149.942 115.891C149.83 116.115 149.606 116.227 149.382 116.115C148.822 115.891 147.702 116.003 147.478 116.227C147.366 116.339 147.254 116.451 147.142 116.451Z" fill="white"/>
<path d="M146.918 117.235C146.806 117.235 146.694 117.235 146.694 117.123C146.582 117.011 146.47 116.675 146.694 116.563C147.366 115.891 148.822 116.003 149.606 116.451C149.83 116.563 149.83 116.787 149.83 117.011C149.718 117.235 149.494 117.235 149.27 117.235C148.598 116.899 147.59 116.899 147.254 117.235C147.142 117.235 147.03 117.235 146.918 117.235Z" fill="white"/>
<path d="M148.71 118.131C148.598 118.131 148.598 118.131 148.486 118.131C147.814 117.683 146.806 117.571 146.47 117.907C146.358 118.019 146.022 118.019 145.91 117.907C145.798 117.795 145.798 117.459 145.91 117.347C146.694 116.563 148.15 117.011 148.934 117.459C149.158 117.571 149.158 117.795 149.046 118.019C149.046 118.019 148.934 118.131 148.71 118.131Z" fill="white"/>
<path d="M144.007 112.868C143.895 112.868 143.783 112.868 143.671 112.756C143.111 112.196 143.447 110.74 144.119 109.956C144.231 109.844 144.567 109.732 144.679 109.956C144.791 110.068 144.903 110.404 144.679 110.516C144.231 111.076 144.119 112.084 144.231 112.196C144.343 112.308 144.343 112.644 144.231 112.756C144.231 112.756 144.119 112.868 144.007 112.868Z" fill="white"/>
<path d="M144.791 113.092C144.679 113.092 144.567 112.98 144.455 112.868C144.007 112.196 144.679 110.852 145.239 110.292C145.351 110.18 145.687 110.18 145.799 110.292C145.911 110.404 145.911 110.74 145.799 110.852C145.239 111.3 145.015 112.308 145.127 112.42C145.239 112.644 145.239 112.868 145.015 112.98C144.903 113.092 144.791 113.092 144.791 113.092Z" fill="white"/>
<path d="M145.462 113.316C145.35 113.316 145.126 113.204 145.126 113.092C144.79 112.308 145.798 111.076 146.357 110.628C146.581 110.516 146.805 110.516 146.917 110.74C147.029 110.964 147.029 111.188 146.805 111.3C146.246 111.636 145.798 112.532 145.91 112.756C146.022 112.98 145.91 113.204 145.686 113.316C145.462 113.316 145.462 113.316 145.462 113.316Z" fill="white"/>
<path d="M146.134 113.652C145.91 113.652 145.798 113.54 145.798 113.316C145.574 112.532 146.918 111.3 147.366 111.076C147.59 110.964 147.814 111.076 147.926 111.188C148.038 111.412 147.926 111.636 147.814 111.748C147.366 111.972 146.582 112.868 146.582 113.092C146.582 113.428 146.47 113.54 146.134 113.652Z" fill="white"/>
<path d="M146.807 113.875C146.583 113.875 146.471 113.763 146.359 113.539C146.247 112.644 147.815 111.636 148.375 111.412C148.599 111.3 148.823 111.412 148.823 111.636C148.935 111.86 148.823 112.084 148.599 112.084C148.151 112.196 147.143 113.091 147.143 113.315C147.255 113.763 147.031 113.875 146.807 113.875Z" fill="white"/>
<path fill-rule="evenodd" clip-rule="evenodd" d="M138.071 125.299C143.558 121.827 153.525 119.139 160.357 117.683C162.149 115.331 168.084 114.323 168.756 115.219C169.652 117.683 169.428 122.947 174.356 127.539C172.452 129.89 168.98 132.914 163.493 131.57C151.958 136.386 144.566 132.578 140.758 134.482C137.623 135.602 134.039 128.546 138.071 125.299Z" fill="#DADADA"/>
<path fill-rule="evenodd" clip-rule="evenodd" d="M148.038 136.61C150.95 132.802 147.478 123.171 142.551 122.611C146.135 121.379 152.182 117.123 156.774 115.444C160.693 114.1 163.269 112.98 167.525 113.092C173.125 112.308 178.5 114.436 178.5 119.139C178.5 125.523 171.669 129.778 166.629 132.018C159.909 134.818 150.166 136.834 148.038 136.61Z" fill="#1C2B59"/>
<path fill-rule="evenodd" clip-rule="evenodd" d="M142.102 121.939C139.302 122.275 133.927 120.259 130.119 117.347C130.343 113.316 132.359 110.292 136.279 107.492C141.654 107.828 145.014 108.612 148.934 111.524C147.366 115.332 144.342 120.483 142.102 121.939Z" fill="#CCCCCC"/>
<path fill-rule="evenodd" clip-rule="evenodd" d="M142.103 121.155C142.551 120.819 143.671 120.259 144.231 118.691C140.647 118.131 134.711 116.004 132.136 113.988C131.24 114.436 130.568 116.116 131.016 117.124C133.703 119.139 138.855 121.155 142.103 121.155Z" fill="#E5E5E5"/>
<path fill-rule="evenodd" clip-rule="evenodd" d="M144.567 118.131C145.463 117.683 146.135 116.787 146.247 115.556C143.112 114.1 136.728 111.86 133.816 110.628C133.144 110.852 131.912 112.644 132.248 113.652C134.936 115.78 141.32 118.131 144.567 118.131Z" fill="#E5E5E5"/>
<path fill-rule="evenodd" clip-rule="evenodd" d="M146.471 114.996C147.479 113.988 147.479 113.092 147.479 112.308C144.455 109.956 140.087 108.836 136.503 107.828C135.719 108.164 134.152 109.172 134.264 110.404C137.511 111.86 143.559 114.212 146.471 114.996Z" fill="#E5E5E5"/>
<path fill-rule="evenodd" clip-rule="evenodd" d="M125.416 78.5982C124.744 76.0224 133.479 78.7102 132.807 80.5021C127.768 84.3098 128.664 83.8618 125.416 78.5982Z" fill="#3C3C3B"/>
<path fill-rule="evenodd" clip-rule="evenodd" d="M133.031 67.623C128.775 72.1027 127.096 80.8381 126.2 82.7419C125.752 84.3098 129.671 85.7657 130.567 83.9738C131.911 81.0621 134.263 78.5982 138.855 74.1185C142.102 71.3188 136.391 64.1513 133.031 67.623Z" fill="#FF9D00"/>
<path fill-rule="evenodd" clip-rule="evenodd" d="M130.679 86.5498C132.695 91.3654 130.903 93.3813 130.231 93.7173C130.007 93.8293 129.447 93.3813 129.111 93.3813C128.551 93.7173 127.768 93.8293 126.872 93.7173C126.536 92.9333 126.2 89.7976 128.103 90.5815C128.887 89.6856 128.663 86.5498 130.679 86.5498Z" fill="#3C3C3B"/>
<path fill-rule="evenodd" clip-rule="evenodd" d="M126.536 89.0135C127.096 89.4615 127.768 89.6854 127.992 89.3494C128.216 89.1255 127.88 88.4535 127.32 88.0056C126.76 87.5576 126.088 87.3336 125.864 87.6696C125.752 87.8936 125.976 88.4535 126.536 89.0135Z" fill="#CF8453"/>
<path fill-rule="evenodd" clip-rule="evenodd" d="M125.304 83.75C126.536 82.5181 127.992 84.31 128.664 85.6539C129.223 86.5498 128.216 89.6856 127.656 91.2534C127.32 92.2614 127.32 92.7093 127.432 93.3813C127.432 94.2772 125.416 93.8292 125.416 92.7093C124.856 93.0453 123.96 92.0374 123.96 91.2534C123.4 91.4774 122.728 91.2534 122.616 89.9095C121.384 89.9095 121.384 88.4536 121.608 87.5577C121.72 86.3258 122.616 85.8778 123.176 85.4299C124.296 84.3099 125.08 83.974 125.304 83.75Z" fill="#3C3C3B"/>
<path fill-rule="evenodd" clip-rule="evenodd" d="M122.391 86.1015C123.623 84.4216 125.079 83.0778 127.095 82.9658C128.663 82.8538 131.127 84.5336 130.791 86.1015C130.455 87.4454 130.567 87.8934 130.119 90.1332C129.223 89.9092 127.991 91.4771 128.215 92.4851C128.215 92.933 126.087 92.485 125.751 91.4771C125.079 91.4771 124.743 91.0291 124.519 89.9092C123.735 89.7972 123.623 89.4612 123.287 88.6773C122.615 88.0054 122.055 86.8855 122.391 86.1015Z" fill="#706F6F"/>
<path fill-rule="evenodd" clip-rule="evenodd" d="M125.416 78.3745C126.647 80.2784 130.903 81.6223 132.807 80.6143C132.919 81.1743 132.919 81.6223 132.135 82.2942C130.343 83.0782 126.312 82.2942 125.304 80.5023C124.968 79.7184 124.744 78.8225 125.416 78.3745Z" fill="#DADADA"/>
<path fill-rule="evenodd" clip-rule="evenodd" d="M132.135 82.182C131.687 83.4139 131.127 84.6458 130.791 85.9897C128.887 86.1017 126.983 85.2058 125.191 83.5259L125.415 80.3901C126.199 81.846 128.999 82.63 130.903 82.518C131.239 82.518 131.687 82.406 132.135 82.182Z" fill="#3C3C3B"/>
<path fill-rule="evenodd" clip-rule="evenodd" d="M187.794 138.514C186.675 140.194 183.539 143.106 181.971 144.785C180.851 146.017 182.531 153.745 188.018 149.825C190.706 147.697 193.618 145.905 195.522 144.449C198.882 142.098 201.009 140.082 205.041 137.954C206.273 137.282 205.265 134.258 202.913 133.698C195.858 136.162 190.594 134.706 187.794 138.514Z" fill="#FF9D00"/>
<path fill-rule="evenodd" clip-rule="evenodd" d="M162.262 145.345C164.166 139.073 169.989 130.674 174.245 125.074C174.133 122.163 177.941 117.571 179.061 117.795C181.301 119.139 184.548 123.283 191.268 123.507C191.38 126.53 190.596 131.122 185.668 133.586C180.069 144.673 171.893 146.577 170.325 150.609C168.646 153.52 161.254 150.497 162.262 145.345Z" fill="#DADADA"/>
<path fill-rule="evenodd" clip-rule="evenodd" d="M179.396 145.009C179.06 141.761 169.205 135.602 165.621 136.274C167.749 133.138 169.765 125.411 172.565 121.491C172.117 119.475 177.604 117.011 180.964 114.547C184.996 110.628 190.595 109.172 193.395 112.868C197.203 117.907 194.179 125.523 191.491 130.226C187.907 136.498 181.188 143.889 179.396 145.009Z" fill="#2B3E78"/>
<path fill-rule="evenodd" clip-rule="evenodd" d="M209.186 130.899L209.746 130.451C209.969 130.563 210.305 130.675 210.529 131.123C212.209 133.474 215.793 139.41 216.913 143.218C217.361 144.786 216.465 147.137 215.569 146.913L212.769 146.13L212.545 145.122L215.009 145.794C218.033 144.898 211.537 133.138 209.186 130.899Z" fill="#706F6F"/>
<path fill-rule="evenodd" clip-rule="evenodd" d="M209.411 130.786C209.635 130.898 209.747 131.122 209.971 131.346C211.875 133.922 215.011 139.186 216.018 142.657C216.466 144.001 216.354 146.353 214.899 146.801L212.771 146.241L212.547 145.233L214.899 145.793C215.57 144.673 215.346 142.657 214.563 141.313L212.771 142.881L211.539 139.298L213.555 139.522C212.659 137.618 211.763 136.05 210.755 134.594L208.627 135.938L208.291 133.474L210.083 133.138L209.075 131.234L209.411 130.786Z" fill="#B2B2B2"/>
<path fill-rule="evenodd" clip-rule="evenodd" d="M209.299 130.786L209.859 130.338C210.083 130.45 210.419 130.674 210.755 131.01C212.435 133.362 216.018 139.298 217.138 143.105C217.586 144.673 216.69 147.025 215.794 146.801L212.995 146.017L212.771 145.009L215.234 145.681C218.37 144.785 211.763 132.914 209.299 130.786Z" fill="#7F7F7F"/>
<path fill-rule="evenodd" clip-rule="evenodd" d="M209.634 130.562C209.858 130.674 210.082 130.898 210.194 131.122C212.098 133.698 215.234 138.962 216.242 142.434C216.69 143.777 216.578 146.129 215.122 146.577L212.994 146.017L212.77 145.009L215.122 145.569C215.794 144.449 215.458 142.21 214.786 140.978L212.77 141.65L211.874 139.074L213.89 139.298C212.994 137.394 211.986 135.714 210.978 134.146L208.738 134.818L208.402 132.578L210.306 132.69L209.298 130.786L209.634 130.562Z" fill="white"/>
<path fill-rule="evenodd" clip-rule="evenodd" d="M202.467 131.682C203.139 131.234 204.931 130.114 207.395 130.338C208.403 130.45 209.411 131.682 209.859 133.81C210.307 135.938 212.21 136.834 213.778 139.746C214.562 141.202 215.01 146.689 213.106 147.361C212.21 147.697 211.315 147.697 209.971 146.017C207.619 142.881 206.499 140.194 204.035 139.298C203.139 138.85 199.331 141.874 198.211 142.321C199.219 141.314 200.115 138.85 197.764 136.722C196.98 136.05 195.524 136.834 193.508 135.378C195.636 135.378 199.779 133.474 202.467 131.682Z" fill="#3C3C3B"/>
<path fill-rule="evenodd" clip-rule="evenodd" d="M200.34 137.394C199.668 137.842 198.1 138.85 197.316 139.186C196.084 139.634 196.532 142.434 197.764 143.218C198.772 142.21 200.564 140.194 201.683 139.41C201.124 138.514 200.676 138.178 200.34 137.394Z" fill="#3C3C3B"/>
<path d="M204.37 139.858C204.259 139.858 204.146 139.746 204.034 139.634C203.923 139.41 203.923 139.186 204.146 139.074C204.706 138.738 205.042 136.274 204.706 135.49C204.594 135.266 204.706 135.042 204.93 135.042C205.154 134.93 205.378 135.042 205.378 135.266C205.714 136.162 205.49 139.074 204.482 139.746C204.482 139.858 204.482 139.858 204.37 139.858Z" fill="white"/>
<path d="M204.931 140.194C204.819 140.194 204.819 140.194 204.707 140.082C204.483 139.97 204.483 139.746 204.595 139.522C205.155 138.626 205.827 136.498 205.827 135.602C205.827 135.378 205.939 135.154 206.275 135.266C206.499 135.266 206.611 135.49 206.611 135.714C206.611 136.722 205.939 139.074 205.155 140.082C205.267 140.194 205.155 140.194 204.931 140.194Z" fill="white"/>
<path d="M209.186 145.681C208.962 145.681 208.85 145.569 208.738 145.345C208.626 144.113 209.522 142.321 210.082 141.538C210.194 141.426 210.53 141.314 210.642 141.538C210.754 141.65 210.866 141.985 210.642 142.097C210.082 142.769 209.298 144.337 209.41 145.345C209.634 145.457 209.41 145.569 209.186 145.681Z" fill="white"/>
<path d="M208.625 144.785C208.402 144.785 208.29 144.673 208.178 144.449C208.066 143.217 208.961 141.425 209.633 140.642C209.745 140.53 210.081 140.418 210.193 140.642C210.305 140.754 210.417 141.089 210.193 141.201C209.633 141.873 208.849 143.441 208.961 144.449C208.961 144.561 208.849 144.785 208.625 144.785Z" fill="white"/>
<path d="M207.956 144.002C207.732 144.002 207.62 143.89 207.508 143.666C207.396 142.434 208.292 140.642 208.964 139.858C209.076 139.746 209.411 139.634 209.523 139.858C209.635 139.97 209.747 140.306 209.523 140.418C208.964 141.09 208.18 142.658 208.18 143.666C208.404 143.778 208.18 144.002 207.956 144.002Z" fill="white"/>
<path d="M207.395 143.106C207.171 143.106 206.947 142.882 206.947 142.77C206.947 141.538 207.843 139.746 208.515 138.962C208.627 138.85 208.963 138.738 209.075 138.962C209.187 139.074 209.299 139.41 209.075 139.522C208.515 140.194 207.731 141.762 207.731 142.77C207.731 142.994 207.619 143.106 207.395 143.106Z" fill="white"/>
<path d="M206.835 142.322C206.611 142.322 206.387 142.098 206.387 141.874C206.387 140.53 207.395 138.85 207.955 138.066C208.067 137.954 208.403 137.842 208.515 138.066C208.627 138.178 208.739 138.514 208.515 138.626C207.955 139.298 207.059 140.866 207.059 141.874C207.171 142.098 207.059 142.322 206.835 142.322Z" fill="white"/>
<path d="M206.163 141.537C205.939 141.537 205.715 141.313 205.715 141.089C205.827 139.745 206.723 138.066 207.395 137.282C207.507 137.17 207.843 137.058 207.955 137.282C208.067 137.394 208.179 137.73 207.955 137.842C207.395 138.514 206.499 140.081 206.499 141.089C206.611 141.313 206.387 141.537 206.163 141.537Z" fill="white"/>
<path d="M205.602 140.642C205.378 140.642 205.154 140.418 205.154 140.194C205.266 138.85 206.274 137.17 206.834 136.386C206.946 136.274 207.282 136.162 207.394 136.386C207.506 136.498 207.618 136.834 207.394 136.946C206.834 137.618 205.938 139.186 205.826 140.306C205.938 140.53 205.826 140.642 205.602 140.642Z" fill="white"/>
<path d="M203.587 140.306C203.475 140.306 203.363 140.306 203.251 140.194C203.139 139.97 203.139 139.746 203.363 139.634C204.035 139.186 204.035 136.834 203.699 136.05C203.587 135.826 203.699 135.602 203.923 135.49C204.147 135.378 204.371 135.49 204.483 135.714C204.931 136.722 204.931 139.522 203.923 140.306C203.811 140.194 203.699 140.306 203.587 140.306Z" fill="white"/>
<path d="M202.916 140.642C202.804 140.642 202.692 140.642 202.58 140.53C202.468 140.418 202.468 140.082 202.58 139.97C203.252 139.41 203.14 137.282 202.58 136.386C202.468 136.162 202.58 135.938 202.692 135.826C202.916 135.714 203.14 135.826 203.252 135.938C203.812 136.946 204.148 139.634 203.028 140.53C203.028 140.642 202.916 140.642 202.916 140.642Z" fill="white"/>
<path d="M202.132 140.978C202.02 140.978 201.908 140.978 201.796 140.866C201.684 140.754 201.684 140.418 201.796 140.306C202.468 139.634 202.132 137.618 201.572 136.61C201.46 136.386 201.46 136.162 201.684 136.05C201.908 135.938 202.132 135.938 202.244 136.162C203.028 137.394 203.475 139.858 202.356 140.866C202.356 140.978 202.244 140.978 202.132 140.978Z" fill="white"/>
<path d="M201.348 141.314C201.236 141.314 201.124 141.314 201.124 141.202C201.012 141.09 200.9 140.754 201.124 140.642C201.796 139.97 201.348 138.066 200.564 136.947C200.452 136.723 200.452 136.499 200.676 136.387C200.9 136.275 201.124 136.275 201.236 136.499C202.132 137.73 202.804 140.082 201.796 141.202C201.572 141.314 201.46 141.314 201.348 141.314Z" fill="white"/>
<path d="M200.674 141.762C200.562 141.762 200.45 141.762 200.45 141.65C200.338 141.538 200.226 141.202 200.45 141.09C201.122 140.306 200.562 138.514 199.554 137.282C199.442 137.058 199.442 136.834 199.666 136.722C199.89 136.61 200.114 136.61 200.226 136.834C201.346 138.29 202.018 140.418 201.122 141.65C200.898 141.65 200.786 141.762 200.674 141.762Z" fill="white"/>
<path d="M203.586 144.674C203.138 144.674 202.578 144.45 202.13 144.338C201.459 144.002 199.891 142.434 199.891 141.65C199.891 141.538 199.891 141.426 200.003 141.314C200.003 141.09 200.227 140.754 200.675 140.418C201.57 139.858 203.586 138.962 204.482 139.298C204.482 139.298 204.594 139.298 204.594 139.41C205.042 139.858 204.93 140.306 204.818 140.418C204.482 141.09 203.138 141.426 202.242 141.65C203.586 142.098 205.378 142.77 205.602 142.77C205.714 142.77 205.714 142.77 205.826 142.882C205.938 142.994 205.938 143.218 205.714 143.33C205.602 143.442 204.706 143.106 203.698 142.77C204.258 143.218 204.706 143.666 204.594 144.114C204.594 144.45 204.37 144.562 204.258 144.674C204.034 144.562 203.81 144.674 203.586 144.674ZM200.563 141.538C200.563 141.538 200.563 141.65 200.563 141.762C200.787 142.434 201.906 143.554 202.354 143.778C203.138 144.114 203.586 144.114 203.81 144.002C203.81 144.002 203.81 144.002 203.922 143.89C203.922 143.666 203.586 143.218 202.018 142.322L201.682 142.098C201.459 141.986 201.123 141.762 200.899 141.65L200.563 141.538ZM200.787 140.978L201.011 141.09C201.459 141.202 203.81 140.754 204.258 140.082C204.258 140.082 204.37 139.97 204.146 139.746C203.81 139.634 203.026 139.746 202.13 140.194C201.459 140.418 201.011 140.754 200.787 140.978Z" fill="white"/>
<path d="M204.594 141.874C203.922 141.874 203.138 141.762 202.242 141.65C201.682 141.538 200.898 141.426 200.786 141.538C200.674 141.65 200.562 141.65 200.45 141.538C200.338 141.426 200.338 141.314 200.338 141.09C200.562 140.866 200.898 140.866 202.354 141.09C203.362 141.202 205.042 141.426 205.378 141.202C205.49 141.09 205.713 141.202 205.825 141.314C205.937 141.426 205.825 141.65 205.713 141.762C205.378 141.762 205.042 141.874 204.594 141.874Z" fill="white"/>
<path fill-rule="evenodd" clip-rule="evenodd" d="M188.13 149.713C189.026 149.041 189.922 148.369 190.818 147.697C192.05 144.001 190.482 140.306 187.57 138.85C187.122 139.522 186.114 140.194 185.33 140.977C188.242 140.529 191.154 146.465 188.13 149.713Z" fill="#2B3E78"/>
<path fill-rule="evenodd" clip-rule="evenodd" d="M167.412 134.146C171.78 137.282 178.612 140.418 182.083 140.082C190.483 139.41 197.874 137.618 206.05 133.362C207.617 132.578 216.689 137.506 218.481 141.873C218.929 143.665 219.153 151.281 214.113 154.641C209.633 154.081 207.505 148.705 203.026 148.033L177.492 155.648L175.7 156.32C172.788 148.481 167.412 144.449 164.389 136.61C165.621 135.602 166.181 135.266 167.412 134.146Z" fill="#666666"/>
<path fill-rule="evenodd" clip-rule="evenodd" d="M160.133 148.817C160.021 142.098 162.261 139.41 164.389 136.722C168.196 140.306 176.596 143.89 180.739 144.226C179.619 148.481 178.276 152.177 175.588 156.321C171.444 155.425 163.045 152.289 160.133 148.817Z" fill="#B2B2B2"/>
<path fill-rule="evenodd" clip-rule="evenodd" d="M175.588 156.433C177.828 152.849 179.396 149.713 180.74 144.338C188.131 144.338 202.242 140.53 207.17 136.722C207.394 139.858 205.378 143.554 202.914 148.033C196.082 152.737 179.284 157.441 175.588 156.433Z" fill="#999999"/>
<path fill-rule="evenodd" clip-rule="evenodd" d="M202.801 139.186C204.593 138.402 206.161 137.506 207.169 136.722C207.393 139.858 205.377 143.554 202.913 148.033C201.681 149.265 200.225 150.609 198.098 150.721C200.114 147.473 201.681 143.106 202.801 139.186Z" fill="#2B3E78"/>
<path fill-rule="evenodd" clip-rule="evenodd" d="M175.588 156.432C177.828 152.849 179.396 149.713 180.74 144.337C182.419 144.337 184.435 144.113 186.563 143.777C185.443 148.033 184.099 151.841 181.747 155.984C179.732 157.328 177.156 157.216 175.588 156.432Z" fill="#2B3E78"/>
<path fill-rule="evenodd" clip-rule="evenodd" d="M202.578 148.145C203.922 150.609 208.625 153.857 213.217 155.425C216.353 152.961 217.697 149.601 217.809 144.786C214.449 140.53 211.873 138.178 207.281 136.722C205.042 140.082 202.466 145.569 202.578 148.145Z" fill="#CCCCCC"/>
<path fill-rule="evenodd" clip-rule="evenodd" d="M160.917 148.705C160.917 148.033 160.469 146.689 161.365 145.121C164.5 147.921 173.684 151.729 177.043 152.513C177.379 153.632 176.372 155.424 175.252 155.76C171.556 155.088 163.268 151.505 160.917 148.705Z" fill="#E5E5E5"/>
<path fill-rule="evenodd" clip-rule="evenodd" d="M161.589 144.449C161.365 143.329 161.589 142.21 162.485 141.202C165.62 144.001 175.14 148.033 178.499 148.705C178.835 149.489 178.163 151.841 177.155 152.177C173.46 151.505 163.94 147.249 161.589 144.449Z" fill="#E5E5E5"/>
<path fill-rule="evenodd" clip-rule="evenodd" d="M162.82 140.642C162.932 139.074 163.716 138.402 164.388 137.842C167.524 140.642 175.699 144.225 180.067 144.897C180.403 145.793 179.843 147.809 178.835 148.481C175.027 147.697 165.172 143.329 162.82 140.642Z" fill="#E5E5E5"/>
<path fill-rule="evenodd" clip-rule="evenodd" d="M183.205 155.201C182.645 155.089 183.653 152.513 184.437 151.841C188.021 151.953 196.196 148.817 198.996 147.25C199.556 148.033 198.324 150.049 197.652 150.609C194.516 152.177 185.669 155.089 183.205 155.201Z" fill="#CCCCCC"/>
<path fill-rule="evenodd" clip-rule="evenodd" d="M184.774 151.393C184.214 151.281 185.221 148.705 186.005 148.034C189.589 148.146 197.765 145.01 200.564 143.442C201.124 144.226 199.892 146.242 199.22 146.802C196.085 148.37 187.237 151.281 184.774 151.393Z" fill="#CCCCCC"/>
<path fill-rule="evenodd" clip-rule="evenodd" d="M186.453 147.585C185.893 147.473 186.901 144.897 187.685 144.225C191.269 144.337 199.444 141.202 202.244 139.634C202.804 140.418 201.572 142.434 200.9 142.994C197.764 144.561 188.917 147.473 186.453 147.585Z" fill="#CCCCCC"/>
<path fill-rule="evenodd" clip-rule="evenodd" d="M203.027 147.473C203.139 146.913 202.915 145.681 203.923 144.337C206.275 147.137 211.315 150.945 214.451 152.065C214.562 153.073 213.443 154.529 212.435 154.641C209.187 153.521 204.819 150.161 203.027 147.473Z" fill="#E5E5E5"/>
<path fill-rule="evenodd" clip-rule="evenodd" d="M204.259 143.777C204.147 142.769 204.595 141.761 205.491 140.978C208.403 142.881 213.666 147.025 216.242 148.817C216.466 149.601 215.57 151.505 214.562 151.729C211.427 150.609 205.939 146.577 204.259 143.777Z" fill="#E5E5E5"/>
<path fill-rule="evenodd" clip-rule="evenodd" d="M205.938 140.529C206.273 139.185 206.945 138.626 207.729 138.29C211.313 139.521 214.561 142.657 217.361 145.233C217.473 146.129 217.473 147.921 216.465 148.481C213.441 146.353 208.177 142.433 205.938 140.529Z" fill="#E5E5E5"/>
<path fill-rule="evenodd" clip-rule="evenodd" d="M137.623 67.063C136.951 65.9431 132.472 76.5823 135.159 80.838C140.647 83.8618 148.374 88.7894 154.198 89.4614C157.334 89.7973 156.998 87.1095 158.678 82.5179C159.126 81.3979 159.35 80.502 158.902 79.3821C156.438 73.7825 143.335 68.7429 137.623 67.063Z" fill="#1C2B59"/>
<path fill-rule="evenodd" clip-rule="evenodd" d="M153.526 82.1816C149.494 88.4531 159.125 114.547 165.173 120.707C173.236 128.77 193.731 124.738 195.746 119.475C194.515 105.364 187.347 97.9724 183.539 90.021C179.284 85.5414 174.916 83.1895 166.405 81.6217C161.925 80.8377 156.773 75.5741 153.526 82.1816Z" fill="#1C2B59"/>
<path fill-rule="evenodd" clip-rule="evenodd" d="M158.902 110.18C168.87 118.691 185.22 116.899 193.508 108.948C193.844 109.956 194.18 110.964 194.404 112.084C188.356 121.379 172.341 123.507 161.814 116.003C160.806 114.323 159.798 112.308 158.902 110.18Z" fill="#FF9D00"/>
<path fill-rule="evenodd" clip-rule="evenodd" d="M159.574 111.635C169.653 120.483 186.116 118.467 193.844 110.292C194.18 111.187 194.404 112.083 194.628 113.091C189.028 122.835 173.125 124.85 162.598 117.459C161.59 115.779 160.582 113.875 159.574 111.635Z" fill="white"/>
<path fill-rule="evenodd" clip-rule="evenodd" d="M190.147 114.099C198.323 116.003 201.347 110.74 199.107 107.156C194.739 100.325 187.348 91.1412 183.092 88.9014C181.636 89.3493 177.604 90.0213 176.484 92.2611C173.685 98.0847 184.548 112.756 190.147 114.099Z" fill="#2B3E78"/>
<path d="M152.964 77.5902C152.404 77.5902 151.732 77.4783 151.284 77.1423C150.836 76.9183 150.612 76.4703 150.724 76.1344C150.612 76.1344 150.388 76.1344 150.276 76.1344C149.716 76.1344 149.268 76.0224 148.932 75.6864C148.26 75.2384 148.148 74.7905 148.26 74.4545C148.26 74.0065 148.484 73.5586 148.932 73.2226C149.268 72.8866 149.604 72.7746 149.94 72.5506C150.276 72.4386 150.612 72.3267 150.948 72.3267C151.06 72.3267 151.172 72.3266 151.172 72.4386C151.396 72.7746 151.62 73.1106 151.732 73.4466C151.732 73.5586 151.732 73.5585 151.732 73.6705C151.732 73.7825 151.62 73.7825 151.508 73.7825C151.06 73.7825 150.612 73.8945 150.5 74.1185C150.388 74.2305 150.276 74.3425 150.276 74.3425C150.276 74.3425 150.276 74.4545 150.388 74.4545C150.612 74.5665 150.724 74.5665 150.836 74.5665C151.06 74.5665 151.284 74.3425 151.62 74.1185C151.732 74.0065 151.844 74.0065 151.956 74.1185L152.964 74.7905C153.076 74.7905 153.076 74.9025 153.076 75.0145C153.076 75.1264 153.076 75.1264 152.964 75.2384C152.628 75.5744 152.628 75.6864 152.628 75.7984C152.628 75.7984 152.628 75.9104 152.74 75.9104C152.964 76.0224 153.188 76.0224 153.412 75.9104C153.524 75.7984 153.636 75.6864 153.524 75.2384C153.524 75.1264 153.524 75.1264 153.524 75.0145C153.524 74.9025 153.636 74.9025 153.748 74.9025C154.196 74.9025 154.644 74.9025 155.092 74.9025C155.204 74.9025 155.316 75.0145 155.316 75.1265C155.428 75.5744 155.428 75.7984 155.428 76.1344C155.316 76.4703 155.204 76.6943 154.868 76.9183C154.308 77.3663 153.748 77.5902 152.964 77.5902ZM151.06 75.5744H151.172C151.284 75.6864 151.284 75.7984 151.284 75.9104C151.06 76.2463 151.172 76.4703 151.508 76.6943C151.956 76.9183 152.404 77.0303 152.852 77.0303H152.964C153.524 77.0303 153.972 76.8063 154.42 76.5823C154.644 76.4703 154.756 76.2464 154.756 76.0224C154.756 75.9104 154.756 75.6864 154.756 75.4624C154.532 75.4624 154.196 75.4624 153.972 75.4624C153.972 75.6864 153.972 76.0224 153.636 76.2464C153.3 76.4704 152.852 76.5823 152.404 76.2464C152.068 76.0224 151.956 75.7984 152.068 75.5744C152.068 75.3504 152.18 75.2384 152.404 75.0145L151.844 74.6785C151.508 75.0144 151.284 75.1265 150.948 75.1265C150.612 75.2384 150.276 75.0144 150.164 74.9025C149.94 74.7905 149.828 74.5665 149.828 74.4545C149.828 74.2305 149.94 74.0065 150.164 73.7825C150.388 73.5586 150.724 73.4466 151.06 73.3346C150.948 73.1106 150.836 72.9986 150.724 72.7746C150.5 72.7746 150.164 72.8866 149.94 72.8866C149.604 72.9986 149.38 73.2226 149.156 73.4466C148.82 73.7826 148.708 74.1185 148.596 74.3425C148.596 74.6785 148.708 74.9025 149.044 75.1265C149.38 75.3504 149.716 75.4624 150.164 75.4624C150.5 75.6864 150.836 75.6864 151.06 75.5744Z" fill="white"/>
<path d="M152.964 77.5902C152.404 77.5902 151.732 77.4783 151.284 77.1423C150.836 76.9183 150.612 76.4703 150.724 76.1344C150.612 76.1344 150.388 76.1344 150.276 76.1344C149.716 76.1344 149.268 76.0224 148.932 75.6864C148.26 75.2384 148.148 74.7905 148.26 74.4545C148.26 74.0065 148.484 73.5586 148.932 73.2226C149.268 72.8866 149.604 72.7746 149.94 72.5506C150.276 72.4386 150.612 72.3267 150.948 72.3267C151.06 72.3267 151.172 72.3266 151.172 72.4386C151.396 72.7746 151.62 73.1106 151.732 73.4466C151.732 73.5586 151.732 73.5585 151.732 73.6705C151.732 73.7825 151.62 73.7825 151.508 73.7825C151.06 73.7825 150.612 73.8945 150.5 74.1185C150.388 74.2305 150.276 74.3425 150.276 74.3425C150.276 74.3425 150.276 74.4545 150.388 74.4545C150.612 74.5665 150.724 74.5665 150.836 74.5665C151.06 74.5665 151.284 74.3425 151.62 74.1185C151.732 74.0065 151.844 74.0065 151.956 74.1185L152.964 74.7905C153.076 74.7905 153.076 74.9025 153.076 75.0145C153.076 75.1264 153.076 75.1264 152.964 75.2384C152.628 75.5744 152.628 75.6864 152.628 75.7984C152.628 75.7984 152.628 75.9104 152.74 75.9104C152.964 76.0224 153.188 76.0224 153.412 75.9104C153.524 75.7984 153.636 75.6864 153.524 75.2384C153.524 75.1264 153.524 75.1264 153.524 75.0145C153.524 74.9025 153.636 74.9025 153.748 74.9025C154.196 74.9025 154.644 74.9025 155.092 74.9025C155.204 74.9025 155.316 75.0145 155.316 75.1265C155.428 75.5744 155.428 75.7984 155.428 76.1344C155.316 76.4703 155.204 76.6943 154.868 76.9183C154.308 77.3663 153.748 77.5902 152.964 77.5902ZM151.06 75.5744H151.172C151.284 75.6864 151.284 75.7984 151.284 75.9104C151.06 76.2463 151.172 76.4703 151.508 76.6943C151.956 76.9183 152.404 77.0303 152.852 77.0303H152.964C153.524 77.0303 153.972 76.8063 154.42 76.5823C154.644 76.4703 154.756 76.2464 154.756 76.0224C154.756 75.9104 154.756 75.6864 154.756 75.4624C154.532 75.4624 154.196 75.4624 153.972 75.4624C153.972 75.6864 153.972 76.0224 153.636 76.2464C153.3 76.4704 152.852 76.5823 152.404 76.2464C152.068 76.0224 151.956 75.7984 152.068 75.5744C152.068 75.3504 152.18 75.2384 152.404 75.0145L151.844 74.6785C151.508 75.0144 151.284 75.1265 150.948 75.1265C150.612 75.2384 150.276 75.0144 150.164 74.9025C149.94 74.7905 149.828 74.5665 149.828 74.4545C149.828 74.2305 149.94 74.0065 150.164 73.7825C150.388 73.5586 150.724 73.4466 151.06 73.3346C150.948 73.1106 150.836 72.9986 150.724 72.7746C150.5 72.7746 150.164 72.8866 149.94 72.8866C149.604 72.9986 149.38 73.2226 149.156 73.4466C148.82 73.7826 148.708 74.1185 148.596 74.3425C148.596 74.6785 148.708 74.9025 149.044 75.1265C149.38 75.3504 149.716 75.4624 150.164 75.4624C150.5 75.6864 150.836 75.6864 151.06 75.5744Z" fill="white"/>
<path d="M149.044 73.4466C148.708 73.7825 148.484 74.1185 148.484 74.5665C148.484 74.9024 148.596 75.2384 149.044 75.5744C149.716 76.0224 150.388 76.0223 151.172 75.7984C150.948 76.2463 151.06 76.5823 151.508 76.9183C151.956 77.1423 152.516 77.3663 153.076 77.3663C153.636 77.3663 154.196 77.1423 154.644 76.8063C154.868 76.5823 154.98 76.3583 155.092 76.1343C155.204 75.9104 155.092 75.5744 154.98 75.2384C154.532 75.2384 154.084 75.2384 153.636 75.2384C153.748 75.5744 153.748 75.9104 153.412 76.1343C153.188 76.3583 152.852 76.3583 152.516 76.1343C152.292 76.0224 152.18 75.9104 152.292 75.6864C152.292 75.4624 152.404 75.3504 152.74 75.0144C152.404 74.7904 152.068 74.5665 151.732 74.3425C151.396 74.6784 151.06 74.9024 150.836 74.9024C150.612 74.9024 150.388 74.9024 150.164 74.7904C149.828 74.5664 149.828 74.3425 150.164 74.0065C150.388 73.7825 150.836 73.6705 151.396 73.6705C151.172 73.3345 151.06 72.9986 150.836 72.6626C150.5 72.6626 150.164 72.7746 149.828 72.8866C149.604 72.9986 149.268 73.2226 149.044 73.4466Z" fill="#FF9D00"/>
<path fill-rule="evenodd" clip-rule="evenodd" d="M152.854 85.9898C157.67 91.3654 166.629 95.3972 174.133 96.4051C178.052 96.8531 186.452 96.853 185.332 92.2614C183.652 85.0939 163.605 77.3665 155.43 77.7025C153.414 77.8145 152.63 79.0464 152.294 80.0543C151.734 81.9582 151.846 84.534 152.854 85.9898Z" fill="#FF9D00"/>
<path fill-rule="evenodd" clip-rule="evenodd" d="M156.662 77.59C157.67 79.8299 157.894 81.9577 158.23 84.5335C158.23 84.9815 157.558 85.3175 157.222 85.5414C157.222 86.7734 157.782 87.8933 158.23 88.1172L163.27 89.1252L162.262 77.478C160.358 77.478 158.566 77.478 156.662 77.59Z" fill="#1C2B59"/>
<path d="M157.223 85.7658C157.111 85.7658 157.111 85.6538 157.111 85.6538C157.111 83.8619 157.671 83.3019 158.007 83.1899C158.455 83.078 158.791 83.1899 158.903 83.3019C158.903 83.3019 158.903 83.4139 158.903 83.5259C158.903 83.5259 158.791 83.5259 158.679 83.5259C158.567 83.4139 158.343 83.3019 158.007 83.4139C157.671 83.5259 157.223 83.9739 157.223 85.7658C157.335 85.7658 157.335 85.7658 157.223 85.7658Z" fill="#1D1D1B"/>
<path fill-rule="evenodd" clip-rule="evenodd" d="M162.599 87.8933C164.503 93.045 173.014 90.0212 170.998 82.5177C170.327 80.1659 160.471 82.4057 162.599 87.8933Z" fill="#2B3E78"/>
<path fill-rule="evenodd" clip-rule="evenodd" d="M161.031 77.9261C161.031 77.9261 162.375 80.6139 162.487 85.4295C162.599 91.0291 170.887 90.4692 170.775 83.3017C169.991 81.6218 170.775 79.83 170.551 75.5743C170.215 74.0064 161.031 77.9261 161.031 77.9261Z" fill="#DB9669"/>
<path fill-rule="evenodd" clip-rule="evenodd" d="M156.886 72.6623C157.11 73.8942 156.774 75.0141 156.774 76.246C156.438 77.5899 158.118 77.8139 157.222 79.8298C157.222 81.1737 157.894 83.3015 158.454 84.5334C158.789 85.4294 159.125 86.8852 160.805 87.6692C163.269 88.9011 165.397 86.3253 167.637 85.2054C169.877 84.0855 168.421 81.3976 168.869 79.3818C169.653 75.7981 168.869 71.0944 164.949 70.0865C163.157 69.6385 160.357 69.7505 158.677 70.6465C157.894 70.7584 156.662 71.4304 156.886 72.6623Z" fill="#F2B387"/>
<path fill-rule="evenodd" clip-rule="evenodd" d="M158.23 72.6624C158.454 73.5584 158.006 73.1104 158.678 73.4464C160.694 73.2224 161.254 72.8864 163.83 73.6704C165.734 74.2303 163.83 75.5742 164.838 76.5822C165.174 77.0301 166.629 78.262 166.405 78.934L167.637 78.71C168.981 76.4702 169.653 79.6059 170.325 82.5177C170.325 82.5177 171.781 80.2779 171.893 77.2541C172.005 74.9023 172.341 72.3265 171.221 70.4226C169.541 67.8468 167.413 65.719 160.806 68.4068C159.686 68.9667 157.558 70.3106 158.23 72.6624Z" fill="#704321"/>
<path fill-rule="evenodd" clip-rule="evenodd" d="M168.31 76.8062C169.43 76.8062 169.766 77.5901 169.766 78.822C169.878 79.9419 169.318 81.6218 168.534 81.3978C167.078 80.8378 166.854 80.3899 166.742 78.934C166.854 78.374 167.302 76.9181 168.31 76.8062Z" fill="#F1B287"/>
<path fill-rule="evenodd" clip-rule="evenodd" d="M155.543 77.0302C154.759 72.6625 155.879 68.2949 162.262 66.727C166.854 65.6071 170.886 67.063 172.23 71.0947C172.342 71.5426 172.566 72.8865 172.566 73.8945C172.678 75.0144 171.558 81.9578 170.662 83.0778C169.99 83.8617 168.982 84.5337 168.31 85.6536C165.734 90.1333 162.374 93.717 159.687 92.9331C157.223 92.1491 157.223 91.3652 157.447 90.5812C157.783 89.6853 158.455 88.9014 157.223 88.0054C156.999 87.7814 156.775 86.6615 156.887 85.9896C156.887 85.7656 156.999 85.5416 157.223 85.4296C157.559 86.9975 159.463 87.3335 160.695 87.3335C161.478 87.2215 164.054 85.8776 164.838 84.7576C165.51 83.9737 166.182 77.9262 163.83 78.2621C158.679 79.3821 156.439 78.3741 155.543 77.0302Z" fill="#2B3E78"/>
<path fill-rule="evenodd" clip-rule="evenodd" d="M155.318 74.5663C159.798 76.6941 165.398 75.3502 169.877 74.0063C170.101 74.0063 170.213 74.0063 170.437 74.1183C170.549 74.2303 170.661 74.4543 170.661 74.5663C170.661 74.7903 170.661 75.1263 170.661 75.4622C169.429 75.7982 167.525 76.3582 166.742 77.1421C166.518 77.3661 166.294 77.4781 166.07 77.7021C162.038 78.374 157.558 78.486 155.43 76.6941C155.318 76.0222 155.318 75.3502 155.318 74.5663Z" fill="#1C2B59"/>
<path fill-rule="evenodd" clip-rule="evenodd" d="M155.431 76.5822C154.423 75.6863 154.647 73.5585 155.319 73.8944C159.91 76.2463 165.51 74.6784 170.214 73.3345C170.438 73.3345 170.55 73.3345 170.774 73.4465C170.886 73.5585 170.998 73.7824 170.998 73.8944C170.998 74.2304 170.886 74.9023 170.774 75.2383C169.542 75.5743 166.518 76.1343 166.182 77.3662C162.038 78.1501 157.559 78.3741 155.431 76.5822Z" fill="#3955A8"/>
<path fill-rule="evenodd" clip-rule="evenodd" d="M155.43 76.5823C154.758 76.0224 154.646 74.7905 154.87 74.2305C159.462 76.5823 165.174 75.2384 169.877 73.8945C170.101 73.8945 170.213 73.8945 170.437 74.0065C170.549 74.1185 170.661 74.3425 170.661 74.4545C170.661 74.6785 170.661 75.0144 170.661 75.3504C169.429 75.6864 167.526 76.2463 166.742 77.0303C166.518 77.2543 166.294 77.3663 166.07 77.5902C162.038 78.2622 157.558 78.3742 155.43 76.5823Z" fill="#2B3E78"/>
<path fill-rule="evenodd" clip-rule="evenodd" d="M165.285 75.4624C164.502 75.5744 163.83 75.7984 162.934 75.7984C162.71 75.7984 162.71 76.2464 162.934 76.2464C163.942 76.1344 164.613 75.9104 165.285 75.7984C165.509 75.7984 165.509 75.4624 165.285 75.4624Z" fill="#1C2B59"/>
<path fill-rule="evenodd" clip-rule="evenodd" d="M165.285 76.3584C164.502 76.4704 163.83 76.6944 162.934 76.6944C162.71 76.6944 162.71 77.1424 162.934 77.1424C163.942 77.0304 164.613 76.8064 165.285 76.6944C165.621 76.6944 165.509 76.3584 165.285 76.3584Z" fill="#1C2B59"/>
<path fill-rule="evenodd" clip-rule="evenodd" d="M167.863 75.0142C167.191 75.2382 166.631 75.3502 165.959 75.4622C165.735 75.4622 165.735 75.9102 165.959 75.9102C166.855 75.6862 167.415 75.5742 167.975 75.3502C168.087 75.2382 168.087 74.9022 167.863 75.0142Z" fill="#1C2B59"/>
<path fill-rule="evenodd" clip-rule="evenodd" d="M167.19 75.7983C166.406 76.0223 166.63 76.0223 165.846 76.1343C165.622 76.1343 165.622 76.5823 165.846 76.5823C166.742 76.3583 166.63 76.3583 167.19 76.1343C167.526 76.1343 167.526 75.7983 167.19 75.7983Z" fill="#1C2B59"/>
<path fill-rule="evenodd" clip-rule="evenodd" d="M170.327 69.1907C164.727 69.4146 161.256 70.7586 159.352 73.8943C159.016 74.4543 158.232 74.1183 158.792 73.3344C160.808 70.0866 164.503 68.5187 169.319 68.7427C170.663 68.8547 170.999 69.1907 170.327 69.1907Z" fill="#3955A8"/>
<path fill-rule="evenodd" clip-rule="evenodd" d="M165.959 66.391C160.359 66.503 156.328 69.8627 156.44 73.1105C156.44 73.7824 155.768 73.6704 155.88 72.5505C156.328 66.9509 164.279 65.943 165.959 66.391Z" fill="#3955A8"/>
<path fill-rule="evenodd" clip-rule="evenodd" d="M158.006 73.8946C157.558 73.7826 157.11 73.6706 156.662 73.5586C156.55 73.5586 156.438 73.6706 156.55 73.7826C156.998 74.3425 157.446 74.3425 157.894 74.1186C158.118 74.0066 158.118 73.8946 158.006 73.8946Z" fill="#1C2B59"/>
<path fill-rule="evenodd" clip-rule="evenodd" d="M169.541 79.1583L170.661 78.7103L171.221 76.9185L169.541 77.7024V79.1583ZM169.541 81.3981V79.7182L170.437 79.3823L169.765 81.3981H169.541ZM168.981 77.9264L168.645 79.4943L169.541 79.1583V77.7024L168.981 77.9264ZM169.541 79.7182V81.3981L168.197 82.0701L168.645 80.0542L169.541 79.7182Z" fill="#3955A8"/>
<path fill-rule="evenodd" clip-rule="evenodd" d="M168.757 79.1582L170.213 78.5983L170.661 77.2544L168.981 78.0383L168.757 79.1582ZM168.533 80.1662L168.197 81.7341L169.317 81.1741L169.877 79.6062L168.533 80.1662Z" fill="#1C2B59"/>
<path d="M158.454 82.4059C158.23 82.4059 158.118 82.4059 157.894 82.4059C155.542 81.9579 155.43 78.2622 155.318 77.1423C155.318 77.0303 155.318 77.0303 155.43 77.0303C155.542 77.0303 155.542 77.0303 155.542 77.1423C155.542 78.2622 155.766 81.8459 157.894 82.1819C160.022 82.6299 162.262 80.39 163.718 78.4862C163.718 78.4862 163.83 78.3742 163.942 78.4862C163.942 78.4862 164.054 78.5982 163.942 78.7101C162.598 80.39 160.582 82.4059 158.454 82.4059Z" fill="#1D1D1B"/>
<path d="M158.68 84.6456C158.568 84.6456 158.344 84.6456 158.232 84.6456C155.88 84.1977 155.768 80.5019 155.656 79.382C155.656 79.27 155.656 79.27 155.768 79.27C155.88 79.27 155.88 79.27 155.88 79.382C155.88 80.5019 156.104 84.0857 158.232 84.4216C160.36 84.7576 163.608 82.1818 165.288 80.2779C165.288 80.2779 165.4 80.2779 165.512 80.2779C165.512 80.2779 165.512 80.3899 165.512 80.5019C164.056 81.9578 161.032 84.6456 158.68 84.6456Z" fill="#1D1D1B"/>
<path d="M164.391 85.5419C162.599 83.302 160.023 80.8382 157.784 80.3903C157.336 80.2783 157 80.3903 156.888 80.7262C156.44 81.5102 157 83.414 158.12 84.7579C158.12 84.7579 158.12 84.8699 158.12 84.9819C158.12 84.9819 158.008 84.9819 157.896 84.9819C156.664 83.526 156.104 81.5102 156.552 80.6142C156.664 80.3903 157 80.0543 157.672 80.1663C159.911 80.6143 162.711 83.078 164.279 85.3179C164.503 85.4299 164.503 85.5419 164.391 85.5419Z" fill="#1D1D1B"/>
<path fill-rule="evenodd" clip-rule="evenodd" d="M156.887 86.1017C157.223 87.4456 158.679 88.0055 160.47 88.2295C162.822 87.5575 164.166 86.5496 165.286 85.4297C165.846 83.7498 165.734 82.182 165.51 80.7261C165.734 82.4059 165.286 84.5338 164.95 84.9817C164.054 86.1017 161.478 87.3336 160.806 87.5575C159.575 87.5575 157.671 87.1096 157.335 85.6537C156.999 85.6537 156.887 85.7657 156.887 86.1017Z" fill="#3955A8"/>
<path d="M162.375 86.8854C161.367 85.5415 159.463 82.9657 157.783 82.6297C157.447 82.5177 157.111 82.6297 156.999 82.8537C156.663 83.3017 156.887 84.3096 157.559 85.2056V85.3175C157.559 85.3175 157.447 85.3175 157.335 85.3175C156.663 84.3096 156.439 83.1897 156.775 82.7417C156.887 82.5177 157.223 82.2938 157.783 82.4058C159.463 82.7417 161.479 85.4295 162.375 86.6614C162.487 86.7734 162.487 86.8854 162.375 86.8854Z" fill="#1D1D1B"/>
<path d="M165.512 82.4058C165.4 82.4058 165.4 82.4058 165.512 82.4058C163.048 80.5019 160.136 79.7179 157.784 79.27C156.44 78.934 155.88 79.158 155.88 79.158C155.88 79.158 155.768 79.382 157.336 80.1659C157.448 80.1659 157.448 80.2779 157.336 80.2779C157.336 80.3899 157.224 80.3899 157.224 80.2779C155.768 79.4939 155.656 79.158 155.656 78.934C155.768 78.486 156.888 78.71 157.896 78.822C160.248 79.27 163.16 80.0539 165.624 81.9578C165.624 82.1817 165.623 82.2938 165.512 82.4058Z" fill="#1D1D1B"/>
<path d="M158.678 87.2218C157.67 85.43 157.446 81.1743 157.782 78.4865C157.782 78.3745 157.894 78.3745 157.894 78.3745C158.006 78.3745 158.006 78.4865 158.006 78.4865C157.67 81.1743 157.894 85.43 158.79 86.9979C158.79 87.1098 158.79 87.2218 158.678 87.2218Z" fill="#1D1D1B"/>
<path d="M160.358 87.5573C160.246 87.5573 160.246 87.4453 160.246 87.4453C160.358 86.5494 160.694 85.7655 161.366 85.2055C162.71 84.0856 164.614 83.8616 165.174 83.9736C165.286 83.9736 165.286 84.0856 165.286 84.0856C165.286 84.1976 165.174 84.1975 165.174 84.1975C164.614 84.1975 162.71 84.3095 161.478 85.4295C160.806 85.9894 160.47 86.6614 160.358 87.5573C160.47 87.5573 160.47 87.5573 160.358 87.5573Z" fill="#1D1D1B"/>
<path fill-rule="evenodd" clip-rule="evenodd" d="M158.343 89.4614C159.575 90.5813 161.591 90.4694 164.055 89.4614C163.383 90.8053 162.375 92.3732 160.583 92.3732C159.687 92.3732 158.455 91.9252 157.895 91.2533C157.447 91.0293 158.007 90.0214 158.343 89.4614Z" fill="#3955A8"/>
<path d="M187.237 102.789C186.789 102.789 186.229 102.677 185.781 102.341C185.669 102.341 185.669 102.229 185.669 102.117L185.557 101.109C185.557 100.997 185.557 100.997 185.669 100.885C185.781 100.885 185.781 100.773 185.893 100.885C186.341 101.109 186.677 101.109 186.901 101.109C187.013 101.109 187.125 100.997 187.125 100.997C187.125 100.997 187.125 100.885 187.013 100.773C186.789 100.437 186.453 100.437 185.781 100.661C185.669 100.661 185.557 100.661 185.557 100.549L184.885 99.6529C184.885 99.5409 184.773 99.5409 184.885 99.4289C184.885 99.3169 184.997 99.3169 184.997 99.3169C185.445 99.2049 185.445 99.0929 185.445 98.9809C185.445 98.8689 185.445 98.8689 185.333 98.7569C185.221 98.5329 184.997 98.533 184.885 98.533C184.773 98.533 184.661 98.645 184.549 98.9809C184.549 99.0929 184.437 99.0929 184.437 99.0929C184.325 99.0929 184.325 99.0929 184.213 99.0929C183.877 98.8689 183.541 98.645 183.093 98.533L182.981 98.421C182.869 98.421 182.869 98.197 182.869 98.085C183.093 97.525 183.429 97.0771 183.989 96.8531C185.109 96.5171 186.117 96.8531 186.789 97.749C187.125 98.309 187.125 98.7569 187.013 99.0929C187.573 99.2049 188.133 99.5409 188.469 100.101C188.805 100.661 188.917 101.221 188.805 101.669C188.693 102.117 188.357 102.453 187.797 102.565C187.685 102.789 187.461 102.789 187.237 102.789ZM186.117 102.005C186.677 102.341 187.349 102.341 187.797 102.229C188.133 102.117 188.357 101.893 188.469 101.669C188.581 101.333 188.469 100.997 188.245 100.549C187.909 100.101 187.461 99.7649 186.901 99.7649C186.789 99.7649 186.677 99.7649 186.565 99.6529C186.453 99.5409 186.453 99.4289 186.565 99.3169C186.789 98.9809 186.789 98.6449 186.453 98.197C185.893 97.413 185.109 97.1891 184.213 97.525C183.877 97.637 183.653 97.861 183.429 98.197C183.653 98.309 183.989 98.533 184.213 98.645C184.325 98.421 184.437 98.197 184.773 98.085C184.885 98.085 184.997 98.085 185.109 98.085C185.333 98.085 185.557 98.197 185.893 98.533C186.005 98.7569 186.117 98.9809 186.005 99.2049C185.893 99.4289 185.781 99.5409 185.557 99.6529L185.893 100.213C186.789 99.9889 187.237 100.325 187.461 100.661C187.685 100.885 187.685 101.109 187.573 101.221C187.573 101.333 187.349 101.557 187.013 101.669C186.789 101.781 186.453 101.781 186.005 101.557L186.117 102.005ZM190.149 101.333C189.813 101.333 189.477 101.221 189.141 101.109C189.029 101.109 189.029 100.997 189.029 100.885C189.029 100.549 188.917 100.101 188.917 99.7649C188.917 99.6529 188.917 99.5409 189.029 99.5409C189.141 99.5409 189.141 99.4289 189.253 99.5409C189.589 99.6529 189.925 99.6529 190.037 99.5409C190.261 99.3169 190.261 99.2049 190.149 99.0929C190.037 98.8689 189.925 98.8689 189.813 98.8689C189.701 98.8689 189.477 98.9809 189.141 99.0929C189.029 99.2049 188.917 99.0929 188.805 98.9809L188.133 97.973C188.133 97.973 188.133 97.861 188.133 97.749C188.133 97.637 188.133 97.637 188.245 97.637C188.469 97.525 188.581 97.301 188.693 97.1891C188.693 97.1891 188.693 97.0771 188.581 96.8531C188.469 96.7411 188.357 96.6291 188.245 96.7411C188.133 96.8531 188.021 96.9651 188.021 97.413C188.021 97.525 188.021 97.525 187.909 97.637C187.797 97.637 187.797 97.637 187.685 97.637C187.349 97.413 187.013 97.301 186.565 97.0771C186.453 97.0771 186.453 96.9651 186.453 96.8531C186.565 96.1811 186.789 95.6212 187.237 95.2852C187.573 95.0612 187.909 94.9492 188.357 94.9492C188.805 94.9492 189.365 95.0612 189.813 95.8452C190.149 96.2931 190.261 96.7411 190.149 97.3011C190.485 97.3011 191.045 97.413 191.493 98.197C192.164 99.2049 192.052 100.437 191.157 100.997C190.933 101.221 190.597 101.333 190.149 101.333ZM189.589 100.773C190.149 100.997 190.597 100.997 191.045 100.661C191.717 100.213 191.828 99.3169 191.269 98.533C190.933 98.085 190.485 97.861 190.149 97.973C190.037 97.973 189.925 97.973 189.925 97.861C189.925 97.749 189.813 97.749 189.925 97.637C190.149 97.189 190.037 96.7411 189.813 96.4051C189.253 95.6212 188.581 95.5092 187.909 95.9571C187.573 96.1811 187.349 96.5171 187.349 96.9651C187.573 97.0771 187.797 97.1891 188.021 97.3011C188.133 97.0771 188.133 96.8531 188.469 96.6291C188.581 96.5171 188.693 96.5171 188.805 96.5171C188.917 96.5171 189.253 96.6291 189.477 96.9651C189.589 97.1891 189.701 97.413 189.701 97.637C189.701 97.861 189.477 98.085 189.253 98.197L189.589 98.7569C190.373 98.309 190.821 98.645 191.045 98.9809C191.269 99.4289 191.269 99.8769 190.821 100.101C190.597 100.213 190.261 100.325 189.925 100.213C189.477 100.325 189.477 100.549 189.589 100.773Z" fill="white"/>
<path d="M187.237 102.789C186.789 102.789 186.229 102.677 185.781 102.341C185.669 102.341 185.669 102.229 185.669 102.117L185.557 101.109C185.557 100.997 185.557 100.997 185.669 100.885C185.781 100.885 185.781 100.773 185.893 100.885C186.341 101.109 186.677 101.109 186.901 101.109C187.013 101.109 187.125 100.997 187.125 100.997C187.125 100.997 187.125 100.885 187.013 100.773C186.789 100.437 186.453 100.437 185.781 100.661C185.669 100.661 185.557 100.661 185.557 100.549L184.885 99.6529C184.885 99.5409 184.773 99.5409 184.885 99.4289C184.885 99.3169 184.997 99.3169 184.997 99.3169C185.445 99.2049 185.445 99.0929 185.445 98.9809C185.445 98.8689 185.445 98.8689 185.333 98.7569C185.221 98.5329 184.997 98.533 184.885 98.533C184.773 98.533 184.661 98.645 184.549 98.9809C184.549 99.0929 184.437 99.0929 184.437 99.0929C184.325 99.0929 184.325 99.0929 184.213 99.0929C183.877 98.8689 183.541 98.645 183.093 98.533L182.981 98.421C182.869 98.421 182.869 98.197 182.869 98.085C183.093 97.525 183.429 97.0771 183.989 96.8531C185.109 96.5171 186.117 96.8531 186.789 97.749C187.125 98.309 187.125 98.7569 187.013 99.0929C187.573 99.2049 188.133 99.5409 188.469 100.101C188.805 100.661 188.917 101.221 188.805 101.669C188.693 102.117 188.357 102.453 187.797 102.565C187.685 102.789 187.461 102.789 187.237 102.789ZM186.117 102.005C186.677 102.341 187.349 102.341 187.797 102.229C188.133 102.117 188.357 101.893 188.469 101.669C188.581 101.333 188.469 100.997 188.245 100.549C187.909 100.101 187.461 99.7649 186.901 99.7649C186.789 99.7649 186.677 99.7649 186.565 99.6529C186.453 99.5409 186.453 99.4289 186.565 99.3169C186.789 98.9809 186.789 98.6449 186.453 98.197C185.893 97.413 185.109 97.1891 184.213 97.525C183.877 97.637 183.653 97.861 183.429 98.197C183.653 98.309 183.989 98.533 184.213 98.645C184.325 98.421 184.437 98.197 184.773 98.085C184.885 98.085 184.997 98.085 185.109 98.085C185.333 98.085 185.557 98.197 185.893 98.533C186.005 98.7569 186.117 98.9809 186.005 99.2049C185.893 99.4289 185.781 99.5409 185.557 99.6529L185.893 100.213C186.789 99.9889 187.237 100.325 187.461 100.661C187.685 100.885 187.685 101.109 187.573 101.221C187.573 101.333 187.349 101.557 187.013 101.669C186.789 101.781 186.453 101.781 186.005 101.557L186.117 102.005ZM190.149 101.333C189.813 101.333 189.477 101.221 189.141 101.109C189.029 101.109 189.029 100.997 189.029 100.885C189.029 100.549 188.917 100.101 188.917 99.7649C188.917 99.6529 188.917 99.5409 189.029 99.5409C189.141 99.5409 189.141 99.4289 189.253 99.5409C189.589 99.6529 189.925 99.6529 190.037 99.5409C190.261 99.3169 190.261 99.2049 190.149 99.0929C190.037 98.8689 189.925 98.8689 189.813 98.8689C189.701 98.8689 189.477 98.9809 189.141 99.0929C189.029 99.2049 188.917 99.0929 188.805 98.9809L188.133 97.973C188.133 97.973 188.133 97.861 188.133 97.749C188.133 97.637 188.133 97.637 188.245 97.637C188.469 97.525 188.581 97.301 188.693 97.1891C188.693 97.1891 188.693 97.0771 188.581 96.8531C188.469 96.7411 188.357 96.6291 188.245 96.7411C188.133 96.8531 188.021 96.9651 188.021 97.413C188.021 97.525 188.021 97.525 187.909 97.637C187.797 97.637 187.797 97.637 187.685 97.637C187.349 97.413 187.013 97.301 186.565 97.0771C186.453 97.0771 186.453 96.9651 186.453 96.8531C186.565 96.1811 186.789 95.6212 187.237 95.2852C187.573 95.0612 187.909 94.9492 188.357 94.9492C188.805 94.9492 189.365 95.0612 189.813 95.8452C190.149 96.2931 190.261 96.7411 190.149 97.3011C190.485 97.3011 191.045 97.413 191.493 98.197C192.164 99.2049 192.052 100.437 191.157 100.997C190.933 101.221 190.597 101.333 190.149 101.333ZM189.589 100.773C190.149 100.997 190.597 100.997 191.045 100.661C191.717 100.213 191.828 99.3169 191.269 98.533C190.933 98.085 190.485 97.861 190.149 97.973C190.037 97.973 189.925 97.973 189.925 97.861C189.925 97.749 189.813 97.749 189.925 97.637C190.149 97.189 190.037 96.7411 189.813 96.4051C189.253 95.6212 188.581 95.5092 187.909 95.9571C187.573 96.1811 187.349 96.5171 187.349 96.9651C187.573 97.0771 187.797 97.1891 188.021 97.3011C188.133 97.0771 188.133 96.8531 188.469 96.6291C188.581 96.5171 188.693 96.5171 188.805 96.5171C188.917 96.5171 189.253 96.6291 189.477 96.9651C189.589 97.1891 189.701 97.413 189.701 97.637C189.701 97.861 189.477 98.085 189.253 98.197L189.589 98.7569C190.373 98.309 190.821 98.645 191.045 98.9809C191.269 99.4289 191.269 99.8769 190.821 100.101C190.597 100.213 190.261 100.325 189.925 100.213C189.477 100.325 189.477 100.549 189.589 100.773Z" fill="white"/>
<path d="M187.908 102.453C188.804 102.117 189.028 101.333 188.468 100.325C188.244 100.101 188.02 99.8768 187.796 99.6529V102.453C187.796 102.453 187.796 102.453 187.908 102.453ZM187.796 97.525V95.5091C188.468 95.1732 189.252 95.2852 189.812 96.0691C190.148 96.5171 190.148 97.077 190.036 97.637C190.484 97.525 191.044 97.749 191.492 98.3089C192.164 99.3169 191.94 100.325 191.156 100.773C190.596 101.109 189.924 101.109 189.364 100.885C189.364 100.549 189.252 100.101 189.252 99.7648C189.7 99.8768 190.036 99.9888 190.26 99.7648C190.596 99.5409 190.596 99.2049 190.484 98.9809C190.26 98.6449 189.924 98.4209 189.252 98.9809C189.028 98.6449 188.804 98.309 188.58 97.973C189.14 97.637 189.252 97.189 188.916 96.8531C188.692 96.5171 188.468 96.5171 188.244 96.6291C188.02 96.853 187.908 97.189 187.796 97.525ZM187.796 99.7648C187.46 99.5409 187.124 99.5409 186.9 99.5409C187.124 99.0929 187.124 98.6449 186.788 98.1969C186.116 97.301 185.22 97.077 184.324 97.413C183.764 97.637 183.54 97.973 183.316 98.4209C183.764 98.6449 184.1 98.8689 184.548 99.0929C184.66 98.7569 184.772 98.5329 184.996 98.4209C185.332 98.3089 185.556 98.4209 185.78 98.7569C186.004 99.0929 186.004 99.4289 185.22 99.6529C185.444 99.9888 185.668 100.325 185.892 100.549C186.788 100.213 187.124 100.437 187.348 100.773C187.572 101.109 187.46 101.333 187.124 101.445C186.788 101.557 186.34 101.445 185.892 101.221C185.892 101.557 185.892 101.893 186.004 102.229C186.564 102.565 187.236 102.677 187.908 102.565V99.7648H187.796ZM187.796 95.5091V97.525C187.46 97.413 187.124 97.189 186.788 97.077C186.9 96.5171 187.124 96.0691 187.572 95.7331C187.572 95.6212 187.684 95.6211 187.796 95.5091Z" fill="#FF9D00"/>
<path fill-rule="evenodd" clip-rule="evenodd" d="M157.669 132.578C152.518 130.898 144.566 128.434 142.774 125.41C142.214 124.515 142.102 123.843 142.214 123.171C143.67 121.155 151.958 118.355 149.718 111.299C149.046 109.172 144.23 107.492 138.295 106.82C137.735 107.156 136.615 107.268 135.719 108.052C144.23 109.508 148.262 110.516 147.59 114.547C147.03 118.019 140.087 117.235 138.631 122.163L134.375 137.506L134.935 139.409C142.998 137.058 149.494 138.961 157.445 136.722C157.557 134.818 157.557 134.146 157.669 132.578Z" fill="#666666"/>
<path fill-rule="evenodd" clip-rule="evenodd" d="M150.278 147.137C155.654 143.217 156.55 139.746 157.334 136.498C152.182 135.602 144.343 131.01 141.543 127.875C138.855 131.346 136.615 134.594 134.936 139.298C138.183 141.985 145.687 146.913 150.278 147.137Z" fill="#B2B2B2"/>
<path fill-rule="evenodd" clip-rule="evenodd" d="M150.167 146.353C150.727 145.905 151.959 145.457 152.631 143.778C148.487 142.994 139.864 138.178 137.176 135.826C136.056 136.274 135.272 138.178 135.72 139.186C138.52 141.762 146.471 146.129 150.167 146.353Z" fill="#E5E5E5"/>
<path fill-rule="evenodd" clip-rule="evenodd" d="M153.078 143.218C154.086 142.77 154.87 141.874 155.094 140.53C150.95 139.746 141.991 134.706 139.303 132.466C138.519 132.69 137.063 134.594 137.399 135.714C140.199 138.066 149.382 142.994 153.078 143.218Z" fill="#E5E5E5"/>
<path fill-rule="evenodd" clip-rule="evenodd" d="M155.318 139.858C156.437 138.738 156.549 137.842 156.549 136.946C152.406 136.162 144.566 131.907 141.431 128.883C140.535 129.219 139.303 130.787 139.303 132.131C142.215 134.594 151.734 139.634 155.318 139.858Z" fill="#E5E5E5"/>
<path fill-rule="evenodd" clip-rule="evenodd" d="M134.936 139.186C136.504 135.154 138.072 132.13 141.544 127.763C140.088 126.755 138.856 125.187 138.52 122.835C134.488 124.179 130.793 130.45 131.577 133.922C131.689 136.498 133.368 138.514 134.936 139.186Z" fill="#2B3E78"/>
<path fill-rule="evenodd" clip-rule="evenodd" d="M147.703 112.644C141.991 114.547 141.095 117.571 139.527 119.475C140.311 119.139 141.207 118.691 142.327 118.131C143.559 116.563 145.575 115.891 147.367 115.107C147.479 114.883 147.591 114.659 147.591 114.435C147.591 114.099 147.703 112.98 147.703 112.644Z" fill="#2B3E78"/>
<path fill-rule="evenodd" clip-rule="evenodd" d="M147.366 115.107C139.639 115.891 134.039 124.851 133.367 127.315C134.711 125.299 136.503 122.835 138.631 122.051C139.863 117.459 146.134 117.795 147.366 115.107Z" fill="#CCCCCC"/>
<path fill-rule="evenodd" clip-rule="evenodd" d="M104.811 35.3695L124.409 94.7251L126.089 95.509L139.864 137.394C139.752 139.186 137.624 142.098 136.616 141.09C135.944 140.418 135.72 139.634 135.496 138.962L121.385 96.8529L122.281 95.397L102.683 36.2654C102.235 35.5934 104.363 34.5855 104.811 35.3695Z" fill="#7F7F7F"/>
<path fill-rule="evenodd" clip-rule="evenodd" d="M103.914 35.2574L123.513 94.613L125.192 95.3969L138.967 137.282C138.855 139.074 136.728 141.985 135.72 140.978C135.048 140.306 134.824 139.522 134.6 138.85L120.489 96.7408L121.385 95.2849L101.786 36.0413C101.338 35.3694 103.466 34.4734 103.914 35.2574Z" fill="#E0AA5A"/>
<path fill-rule="evenodd" clip-rule="evenodd" d="M101.227 35.7053L102.122 38.2811L104.698 37.2732L103.69 34.5854C102.794 34.4734 101.899 34.9214 101.227 35.7053Z" fill="#4C4C4C"/>
<path fill-rule="evenodd" clip-rule="evenodd" d="M103.803 34.6973L104.699 37.3851L105.707 37.4971L104.811 35.0332L103.803 34.6973Z" fill="#333333"/>
<path fill-rule="evenodd" clip-rule="evenodd" d="M102.571 38.3932H102.123L104.699 37.3853L105.707 37.4973L105.483 37.6093H104.699L102.571 38.3932Z" fill="#191919"/>
<path fill-rule="evenodd" clip-rule="evenodd" d="M151.735 145.345C148.04 143.441 142.552 139.97 139.64 137.282L136.393 140.977C139.192 144.001 147.928 149.601 152.071 151.505C152.295 151.617 152.407 151.617 152.631 151.505C152.855 151.393 152.967 151.281 152.967 151.057C153.079 150.273 152.855 148.481 152.743 147.137C152.631 146.353 152.407 145.681 151.735 145.345Z" fill="#7F7F7F"/>
<path fill-rule="evenodd" clip-rule="evenodd" d="M150.95 145.345C147.255 143.441 141.767 139.97 138.855 137.282L135.607 140.977C138.407 144.001 147.143 149.601 151.286 151.505C151.51 151.617 151.622 151.617 151.846 151.505C152.07 151.393 152.182 151.281 152.182 151.057C152.294 150.273 152.07 148.481 151.958 147.137C151.958 146.465 151.622 145.681 150.95 145.345Z" fill="#4C4C4C"/>
<path fill-rule="evenodd" clip-rule="evenodd" d="M127.769 74.3425C129.448 78.2622 133.144 81.734 136.952 85.5417C133.368 91.8132 126.649 105.7 125.753 111.524C125.081 111.748 124.185 112.308 123.401 111.86C123.401 105.028 121.385 79.7181 124.969 74.6785C125.417 73.8945 127.209 74.1185 127.769 74.3425Z" fill="#666666"/>
<path fill-rule="evenodd" clip-rule="evenodd" d="M124.969 74.5664C126.649 78.4861 130.121 81.5099 133.817 85.7656C129.673 91.8131 122.953 105.588 123.289 111.86C120.602 110.292 116.57 104.468 113.994 100.212C113.994 91.8131 121.946 77.0302 124.969 74.5664Z" fill="#B2B2B2"/>
<path fill-rule="evenodd" clip-rule="evenodd" d="M124.746 76.9185C125.194 79.8302 128.442 83.414 131.577 85.7658C130.905 85.8778 128.778 89.6855 128.778 90.8055C126.09 89.1256 122.73 85.4298 121.498 81.9581C121.722 80.8382 122.842 78.2624 124.746 76.9185Z" fill="#E5E5E5"/>
<path fill-rule="evenodd" clip-rule="evenodd" d="M121.498 82.7417C122.058 85.6535 125.418 89.3492 128.554 91.701C127.882 91.813 125.978 95.6207 125.978 96.8527C123.178 95.1728 119.819 91.3651 118.475 88.0053C118.699 86.5494 119.707 83.9736 121.498 82.7417Z" fill="#E5E5E5"/>
<path fill-rule="evenodd" clip-rule="evenodd" d="M118.25 88.2295C119.034 91.1413 122.505 94.949 125.865 97.3008C125.081 97.8608 123.849 101.445 123.849 102.788C120.937 101.109 117.578 97.5248 116.01 94.0531C116.01 92.7092 116.57 89.5734 118.25 88.2295Z" fill="#E5E5E5"/>
<path fill-rule="evenodd" clip-rule="evenodd" d="M116.01 94.3892C116.793 97.3009 120.265 101.221 123.625 103.572C123.065 104.02 121.721 107.828 121.945 109.06C119.033 107.38 116.01 103.796 114.442 100.325C114.33 99.3168 114.33 95.7331 116.01 94.3892Z" fill="#E5E5E5"/>
<path d="M163.942 108.612C163.83 108.388 163.718 108.276 163.606 108.052C162.934 105.588 162.262 103.236 161.59 100.772C160.918 98.3084 160.246 95.9566 159.686 93.4927C159.574 93.1568 159.798 93.0447 160.022 93.1567C160.582 93.4927 161.254 93.7167 161.814 94.0527C161.926 94.1647 162.15 94.2767 162.262 94.3887C162.374 94.6126 162.486 94.7246 162.598 94.9486L163.382 98.0844C163.382 98.3084 163.494 98.4204 163.494 98.6444V98.5324V97.9724C163.382 97.1885 163.382 96.4045 163.27 95.6206V95.0606C163.27 94.8366 163.382 94.7246 163.606 94.8366C164.166 95.0606 164.614 95.1726 165.174 95.3966C165.286 95.3966 165.51 95.6206 165.622 95.7326C165.734 95.9566 165.846 96.0685 165.958 96.2925L166.965 99.9882L166.518 96.0685C166.518 95.8445 166.63 95.7326 166.742 95.8446C167.301 95.9566 167.973 96.1805 168.533 96.2925C168.757 96.2925 168.869 96.5165 169.093 96.7405C169.317 96.9645 169.429 97.1885 169.429 97.4124C169.653 99.6523 169.877 102.004 170.101 104.356L170.773 111.187C170.773 111.411 170.661 111.523 170.437 111.411C169.653 111.187 168.981 110.963 168.197 110.739C168.085 110.739 167.861 110.515 167.749 110.403C167.637 110.18 167.525 110.068 167.413 109.844L166.742 107.156C166.742 107.156 166.742 107.156 166.742 107.268C166.853 108.164 166.965 109.06 166.965 109.955C166.965 110.179 166.853 110.291 166.63 110.179C165.846 109.844 165.062 109.508 164.278 109.172C164.166 109.172 164.054 109.06 163.942 108.948C163.942 108.724 163.942 108.612 163.942 108.612ZM165.622 106.372C165.51 105.476 165.398 104.58 165.286 103.684C165.174 102.676 165.062 101.556 164.95 100.548C164.95 100.324 165.174 100.212 165.398 100.324C165.51 100.436 165.734 100.548 165.846 100.66C165.958 100.884 166.07 100.996 166.182 101.22L166.294 101.668C166.518 102.564 166.741 103.572 167.077 104.58C167.301 105.588 167.637 106.484 167.861 107.492L168.421 109.62C168.869 109.732 169.205 109.844 169.653 109.955L168.981 103.46C168.757 101.444 168.533 99.4283 168.421 97.4124C168.197 97.4124 167.973 97.3004 167.637 97.1884L168.085 100.772C168.197 101.444 168.309 102.228 168.309 102.9C168.533 104.356 168.757 105.812 168.869 107.268C168.869 107.492 168.757 107.604 168.533 107.492C168.533 107.492 168.421 107.492 168.421 107.38C168.309 107.268 168.085 107.156 167.973 107.044C167.861 106.932 167.749 106.708 167.749 106.596L167.301 104.916C167.077 103.908 166.741 103.012 166.518 102.004C166.406 101.444 166.182 100.772 165.958 100.212L164.838 96.4045C164.614 96.2925 164.502 96.2925 164.278 96.1805V96.4045C164.39 97.1885 164.39 97.9724 164.502 98.7563V99.3163C164.614 100.1 164.614 100.884 164.726 101.668C164.838 102.676 164.95 103.796 165.062 104.916L165.174 105.924C165.174 106.148 164.95 106.148 164.838 106.148C164.726 106.148 164.502 105.924 164.39 105.812C164.278 105.588 164.166 105.476 164.054 105.252C163.718 104.02 163.494 102.788 163.158 101.556L162.71 99.7643C162.486 98.9803 162.374 98.3084 162.15 97.5244L161.59 95.0606C161.366 94.9486 161.142 94.8366 160.918 94.7247C161.478 96.9645 162.038 99.2043 162.71 101.444C163.27 103.684 163.942 105.924 164.502 108.164C164.95 108.388 165.398 108.612 165.846 108.724C165.734 107.828 165.734 107.156 165.622 106.372Z" fill="white"/>
<path d="M160.807 94.1645C161.255 94.3884 161.591 94.5004 162.039 94.7244C162.263 95.7323 162.487 96.8522 162.823 97.8602C163.047 98.8681 163.383 99.988 163.607 100.996C163.943 102.452 164.391 104.02 164.727 105.476C164.503 104.02 164.391 102.564 164.279 101.22C164.167 100.212 164.055 99.316 164.055 98.3081C163.943 97.3002 163.943 96.4043 163.831 95.3963C164.391 95.6203 164.839 95.7323 165.399 95.9563C165.735 96.9642 165.959 98.0842 166.295 99.0921C166.631 100.1 166.855 101.22 167.191 102.228C167.639 103.684 167.975 105.252 168.423 106.707C168.199 105.252 167.975 103.796 167.863 102.34C167.751 101.332 167.639 100.324 167.527 99.316C167.415 98.3081 167.303 97.3002 167.191 96.2923C167.863 96.4043 168.423 96.6283 169.095 96.7402C169.319 99.0921 169.543 101.332 169.767 103.684C169.991 105.924 170.215 108.275 170.439 110.515C169.655 110.291 168.983 110.067 168.199 109.843C167.975 108.835 167.639 107.939 167.415 106.931C167.191 105.924 166.855 105.028 166.631 104.02C166.295 102.9 165.959 101.668 165.735 100.66C165.847 101.668 165.959 102.788 166.071 103.796C166.183 104.692 166.295 105.588 166.407 106.484C166.519 107.379 166.631 108.275 166.631 109.171C165.847 108.835 165.063 108.499 164.279 108.163C163.607 105.7 162.935 103.348 162.263 100.884C161.927 99.764 161.591 98.5321 161.367 97.4122C161.143 96.5163 160.919 95.7323 160.695 94.8364L160.359 93.6045L160.807 94.1645Z" fill="#FF9D00"/>
<path fill-rule="evenodd" clip-rule="evenodd" d="M196.532 115.332C190.596 117.348 181.077 116.228 179.061 116.228C177.381 116.004 177.605 111.3 179.621 111.3C182.869 111.188 185.109 110.18 191.044 107.94C196.42 105.812 203.363 113.204 196.532 115.332Z" fill="#FF9D00"/>
<path fill-rule="evenodd" clip-rule="evenodd" d="M181.077 110.292C182.868 112.644 181.748 117.011 179.397 117.795C178.949 118.019 178.389 118.019 177.717 117.235C178.725 116.115 178.837 111.636 178.389 109.844C178.389 109.508 180.629 109.732 181.077 110.292Z" fill="#DADADA"/>
<path fill-rule="evenodd" clip-rule="evenodd" d="M177.716 117.236C176.485 116.788 175.477 120.035 170.325 120.931C170.885 120.595 161.478 108.052 161.926 106.26C167.077 110.292 173.237 110.292 173.349 105.588C174.469 106.036 177.94 108.612 179.06 110.292C180.964 113.316 179.62 116.9 177.716 117.236Z" fill="#3C3C3B"/>
<path fill-rule="evenodd" clip-rule="evenodd" d="M169.428 121.043C173.123 121.043 177.043 117.235 177.379 112.979V111.859V111.747C176.931 107.492 172.899 104.804 169.428 102.9V103.908C171.667 105.252 176.035 108.948 176.595 111.747C176.931 113.315 172.899 113.987 169.428 113.315V121.043ZM164.836 112.083C165.06 112.979 162.148 118.915 167.972 120.931C168.42 121.043 168.868 121.155 169.428 121.155V113.427C167.636 113.091 165.956 112.419 165.172 111.187C159.012 102.452 163.492 101.444 168.644 103.572C168.868 103.684 169.092 103.796 169.428 104.02V103.012C169.204 102.9 168.98 102.788 168.756 102.676C161.7 98.7564 155.989 100.772 164.836 112.083Z" fill="#B2B2B2"/>
<path fill-rule="evenodd" clip-rule="evenodd" d="M174.019 108.388H174.243C174.243 108.164 174.131 107.94 174.019 107.828V107.604C174.691 108.276 175.251 109.059 175.811 109.731L175.475 109.619C175.587 110.067 175.587 110.403 175.699 110.851C175.923 110.963 176.259 110.963 176.483 111.075C176.595 111.299 176.595 111.411 176.595 111.635C176.595 111.747 176.595 111.971 176.595 112.083C176.371 111.971 176.035 111.971 175.811 111.859L175.139 112.195C175.139 111.971 175.027 111.859 175.027 111.635C174.691 111.523 174.467 111.523 174.131 111.411V110.403C174.355 110.515 174.579 110.515 174.803 110.627C174.691 110.291 174.691 109.843 174.579 109.507L174.131 109.395V108.388H174.019ZM174.019 112.531C174.579 112.755 175.027 112.867 175.475 112.979C175.027 113.203 174.579 113.315 174.019 113.427V112.531ZM172.003 105.7C172.563 106.148 173.123 106.708 173.683 107.268C173.347 107.156 173.011 107.156 172.675 107.044C172.787 107.38 172.899 107.828 173.011 108.164C173.347 108.276 173.683 108.276 174.019 108.388V109.395C173.795 109.395 173.571 109.283 173.347 109.283C173.459 109.619 173.571 110.067 173.571 110.403L174.019 110.515V111.523H173.795C173.907 111.859 173.907 112.307 174.019 112.643V113.539C173.907 113.539 173.795 113.539 173.571 113.651C173.123 113.539 172.675 113.427 172.227 113.315V113.539L171.891 113.651V111.635C171.891 111.859 172.003 111.971 172.003 112.195C172.339 112.307 172.787 112.419 173.123 112.419C173.011 112.083 173.011 111.635 172.899 111.299C172.563 111.187 172.227 111.187 171.891 111.075V110.067C172.115 110.067 172.339 110.179 172.675 110.179C172.563 109.843 172.451 109.395 172.339 109.059C172.227 109.059 172.003 108.947 171.891 108.947V107.94H172.003C172.003 107.828 171.891 107.716 171.891 107.716V105.7H172.003ZM174.019 107.828V107.604L173.907 107.492L174.019 107.828ZM171.219 105.14C171.443 105.364 171.667 105.476 172.003 105.7V107.716C171.891 107.38 171.779 107.156 171.667 106.82L171.219 106.708V105.14ZM172.003 113.539C171.891 113.539 171.667 113.539 171.555 113.539C171.555 113.315 171.443 113.091 171.443 112.867H171.331V107.716C171.555 107.716 171.779 107.828 172.115 107.828V108.835C171.891 108.835 171.667 108.724 171.331 108.724C171.443 109.059 171.555 109.507 171.667 109.843L172.115 109.955V110.963H172.003C172.003 111.187 172.115 111.299 172.115 111.523V113.539H172.003ZM169.764 104.02C169.988 104.132 170.212 104.244 170.435 104.468C170.212 104.468 169.988 104.356 169.764 104.356V104.02ZM169.764 105.252L169.876 105.476C170.324 105.588 170.771 105.588 171.219 105.7C171.107 105.364 170.883 105.028 170.659 104.692C170.883 104.804 170.995 104.916 171.219 105.14V106.708C170.995 106.708 170.659 106.596 170.435 106.596L170.547 106.82C170.659 107.156 170.771 107.492 170.883 107.828L171.219 107.94V113.091C170.883 112.979 170.548 112.979 170.212 112.867C170.324 113.091 170.324 113.427 170.324 113.651C170.1 113.651 169.876 113.651 169.652 113.539V110.963C169.764 111.187 169.764 111.523 169.876 111.747C170.324 111.859 170.659 111.859 170.995 111.971C170.883 111.635 170.771 111.187 170.771 110.851C170.436 110.739 169.988 110.739 169.652 110.627V109.619C169.876 109.619 170.212 109.731 170.435 109.731C170.324 109.395 170.212 108.947 170.1 108.612L169.652 108.5V107.492V107.38V105.252H169.764ZM168.868 103.572C169.092 103.684 169.428 103.908 169.764 104.132V104.468L169.204 104.356C169.428 104.692 169.54 105.028 169.764 105.252V107.38C169.764 107.268 169.652 107.156 169.652 107.044C169.54 106.82 169.428 106.596 169.316 106.26L168.868 106.148V103.572ZM169.764 113.427V110.851L169.652 110.627H169.764V109.619L169.316 109.507C169.204 109.171 169.092 108.723 168.868 108.388C169.092 108.388 169.428 108.5 169.652 108.5V107.492C169.316 107.38 169.092 107.38 168.756 107.38V111.075C168.756 111.187 168.868 111.411 168.868 111.523H168.756V112.531L169.204 112.643C169.316 112.867 169.316 113.203 169.428 113.427C169.54 113.315 169.652 113.427 169.764 113.427ZM167.636 103.124C167.972 103.236 168.308 103.348 168.532 103.46C168.644 103.46 168.644 103.572 168.756 103.572V106.26C168.42 106.26 168.084 106.148 167.86 106.148C168.084 106.484 168.196 106.932 168.42 107.268L168.756 107.38V111.075C168.644 110.851 168.644 110.627 168.532 110.403C168.196 110.291 167.86 110.291 167.524 110.179V109.171L168.084 109.283C167.972 108.947 167.748 108.5 167.636 108.164H167.412V105.14C167.748 105.14 168.084 105.252 168.42 105.364C168.196 105.028 167.972 104.58 167.748 104.244L167.412 104.132V103.124H167.636ZM168.868 112.419V111.411C168.532 111.299 168.196 111.299 167.86 111.187C167.86 111.075 167.748 110.851 167.748 110.739V112.867C167.972 112.979 168.196 112.979 168.42 113.091C168.308 112.867 168.308 112.531 168.196 112.307C168.42 112.307 168.644 112.419 168.868 112.419ZM166.404 102.9C166.74 102.9 167.076 103.012 167.3 103.012C167.412 103.012 167.524 103.124 167.636 103.124V104.02C167.3 104.02 166.964 103.908 166.628 103.908C166.852 104.244 167.076 104.692 167.3 105.028H167.636V108.052C167.3 107.94 166.964 107.94 166.516 107.828C166.516 107.94 166.628 108.052 166.628 108.164C166.74 108.388 166.852 108.611 166.964 108.947L167.524 109.059V110.067H167.3C167.412 110.291 167.412 110.515 167.524 110.739V112.867C167.412 112.867 167.3 112.755 167.188 112.755C167.188 112.531 167.076 112.307 167.076 112.195L166.404 112.083V111.075L166.852 111.187C166.74 110.851 166.628 110.403 166.516 110.067V107.044C166.852 107.044 167.188 107.156 167.412 107.156C167.188 106.82 167.076 106.372 166.852 106.036H166.516V102.9H166.404ZM165.172 102.564C165.396 102.564 165.62 102.564 165.844 102.676L165.956 102.9C166.068 102.9 166.292 102.9 166.404 103.012V106.036C166.068 106.036 165.732 105.924 165.508 105.924C165.732 106.26 165.956 106.708 166.068 107.044H166.404V110.067C165.956 109.955 165.62 109.955 165.172 109.843C165.284 110.179 165.508 110.627 165.62 110.963C165.844 110.963 166.18 111.075 166.404 111.075V112.083L165.956 111.971V112.083C165.62 111.859 165.284 111.523 165.06 111.187V108.835C165.396 108.835 165.62 108.947 165.956 108.947L165.844 108.724C165.732 108.388 165.62 108.164 165.396 107.828H165.06V104.804C165.396 104.804 165.732 104.916 166.068 104.916C165.844 104.58 165.62 104.132 165.396 103.796H165.06V102.564H165.172ZM164.052 102.564C164.276 102.564 164.612 102.564 164.836 102.676L164.724 102.564C164.836 102.564 165.06 102.564 165.172 102.564V103.684C164.836 103.684 164.5 103.572 164.164 103.572C164.388 103.908 164.612 104.356 164.836 104.692H165.172V107.716C164.836 107.716 164.612 107.604 164.276 107.604C164.5 107.94 164.612 108.388 164.836 108.724L165.172 108.835V111.187C164.836 110.739 164.5 110.291 164.276 109.843L164.164 109.619L164.052 109.395V106.596C164.388 106.596 164.724 106.708 165.06 106.708C164.836 106.372 164.612 105.924 164.388 105.588H164.052V102.564ZM163.94 102.564V105.476C163.604 105.476 163.268 105.364 162.932 105.364C163.156 105.7 163.38 106.148 163.604 106.484H163.94V109.283C163.716 108.947 163.604 108.723 163.38 108.388H163.604C163.38 108.052 163.268 107.604 163.044 107.268H162.82C162.708 106.932 162.484 106.596 162.372 106.26H162.484L162.26 105.924C162.036 105.14 161.924 104.356 162.036 103.908C162.148 104.02 162.148 104.132 162.26 104.244C162.708 104.244 163.156 104.356 163.604 104.356C163.38 104.02 163.156 103.572 162.932 103.236C162.708 103.236 162.596 103.236 162.484 103.236C162.82 103.012 163.38 102.676 163.94 102.564Z" fill="#7F7F7F"/>
<path fill-rule="evenodd" clip-rule="evenodd" d="M165.507 111.524C165.395 114.099 165.619 118.355 168.867 118.803C172.339 119.363 176.146 115.443 176.594 111.971C176.818 111.188 175.25 108.724 174.914 108.724C173.683 110.852 172.003 112.083 169.427 111.86C167.635 111.748 164.051 108.836 163.267 108.164C163.043 107.828 165.059 110.964 165.507 111.524Z" fill="#3C3C3B"/>
</svg>
