<svg width="21" height="21" viewBox="0 0 21 21" fill="none" xmlns="http://www.w3.org/2000/svg">
<path d="M1.41449 0.617251C0.669128 1.3626 0.669128 2.57106 1.41449 3.31641L8.16249 10.0643L1.41451 16.8123C0.669147 17.5576 0.669147 18.7661 1.41451 19.5115C2.15986 20.2568 3.36832 20.2568 4.11367 19.5115L10.8616 12.7634L17.6095 19.5115C18.3548 20.2568 19.5633 20.2568 20.3086 19.5115C21.0539 18.766 21.0539 17.5576 20.3086 16.8123L13.5608 10.0643L20.3086 3.31641C21.0539 2.57106 21.0539 1.3626 20.3086 0.617251C19.5633 -0.128095 18.3548 -0.128095 17.6095 0.617251L10.8616 7.36514L4.11365 0.617251C3.3683 -0.128114 2.15984 -0.128114 1.41449 0.617251Z" fill="#A6A5A5"/>
</svg>
