<svg width="40" height="40" viewBox="0 0 40 40" fill="none" xmlns="http://www.w3.org/2000/svg">
<rect width="40" height="40" fill="none"/>
<g clip-path="url(#clip0_841_20345)">
<path d="M8.2093 18.8897C5.76154 21.0867 4.97348 16.1911 4.97348 16.1911C4.97348 16.1911 4.75856 18.4359 4.96154 21.0628C3.63617 17.5046 3.08691 12.6329 3.08691 12.6329C3.08691 12.6329 3.12273 24.5016 5.65408 28.1553C7.62423 31.021 9.67796 27.7971 8.97348 25.8389C9.79736 22.7105 9.76154 17.4926 8.2093 18.8897Z" fill="#DB0024"/>
<path d="M33.6061 22.9374C32.424 24.7165 30.9434 26.5195 29.2121 28.2509C26.9912 30.4718 24.6509 32.2747 22.4061 33.5762C21.9882 33.827 21.5703 34.0539 21.1524 34.2568C20.8539 34.4121 20.5554 34.5553 20.2569 34.6867C19.7912 34.9016 19.3255 35.0807 18.8837 35.2359C18.1792 35.4867 17.4986 35.6777 16.8539 35.7852C14.8837 36.1434 13.2479 35.8688 12.2091 34.8419L6.20312 28.824L8.06581 27.0091C8.06581 27.0091 29.5345 4.97923 29.5345 4.96729L35.8151 11.2479C37.9285 13.3613 36.8897 18.018 33.6061 22.9374Z" fill="white"/>
<path d="M33.6059 22.9375C32.4238 24.7166 30.9432 26.5195 29.2118 28.2509C26.9909 30.4718 24.6506 32.2748 22.4059 33.5763C21.988 33.827 21.57 34.0539 21.1521 34.2569C20.8536 34.4121 20.5432 34.5554 20.2566 34.6867C19.7909 34.9016 19.3253 35.0807 18.8835 35.236C18.179 35.4867 17.4984 35.6778 16.8536 35.7852C14.8835 36.1434 13.2477 35.8688 12.2089 34.8419L8.26855 30.9016C8.44766 30.9016 8.62676 30.9016 8.79393 30.8897C8.81781 30.8897 8.82975 30.8897 8.85363 30.8897C8.88945 30.8897 8.91333 30.8897 8.94915 30.8778C8.99691 30.8778 9.03273 30.8658 9.08049 30.8658C9.08049 30.8658 9.08049 30.8658 9.09244 30.8658C9.1999 30.8539 9.29542 30.8419 9.40288 30.83C9.47452 30.8181 9.55811 30.8061 9.62975 30.8061C9.72527 30.7942 9.83273 30.7822 9.92826 30.7584C9.9999 30.7464 10.0715 30.7345 10.1432 30.7225C10.2387 30.7106 10.3342 30.6867 10.4297 30.6628C10.5014 30.6509 10.573 30.627 10.6327 30.6151C10.7283 30.5912 10.8238 30.5673 10.9074 30.5434C10.9193 30.5434 10.9312 30.5315 10.9432 30.5315C11.0029 30.5195 11.0506 30.5076 11.1103 30.4837C11.2059 30.4598 11.2895 30.436 11.373 30.4121C11.3969 30.4001 11.4327 30.4001 11.4566 30.3882C11.4924 30.3763 11.5283 30.3643 11.5641 30.3524C11.6477 30.3285 11.7312 30.2927 11.8268 30.2688C11.8865 30.2449 11.9462 30.233 12.0059 30.2091C12.2924 30.1016 12.579 29.9942 12.8656 29.8867C13.0208 29.827 13.176 29.7554 13.3312 29.6957C13.4745 29.636 13.6297 29.5643 13.773 29.4927C14.0596 29.3494 14.3462 29.2061 14.6208 29.0628C14.6208 29.0628 14.6327 29.0628 14.6327 29.0509C14.9193 28.8957 15.1939 28.7404 15.4686 28.5733C15.7432 28.4061 16.0059 28.2509 16.2686 28.0718C16.3999 27.9882 16.5193 27.9046 16.6387 27.821C17.0327 27.5584 17.4148 27.2837 17.785 27.0091C18.2745 26.6389 18.7402 26.2569 19.2059 25.8748C19.4327 25.6837 19.6596 25.4807 19.8745 25.2897C20.0895 25.0867 20.3044 24.8837 20.5193 24.6927C20.9372 24.2867 21.3551 23.8807 21.7492 23.4628C21.9402 23.2598 22.1432 23.0449 22.3342 22.8419C22.5253 22.639 22.7163 22.4121 22.8954 22.221C23.2656 21.8031 23.6118 21.3852 23.9581 20.9554C24.6387 20.1195 25.2596 19.2718 25.8208 18.424C26.1074 18.0061 26.382 17.5882 26.6327 17.1703C26.788 16.9195 26.9432 16.6688 27.0865 16.4181C27.182 16.2628 27.2775 16.0957 27.3611 15.9404C27.8268 15.1285 28.2208 14.3285 28.579 13.5524C28.9372 12.7763 29.2238 12.024 29.4626 11.3076C29.582 10.9494 29.6895 10.5912 29.773 10.2569C29.8566 9.91059 29.9283 9.57626 29.988 9.25387C30.1074 8.6091 30.1551 8.00014 30.1432 7.46283C30.1312 6.91358 30.0596 6.42402 29.9521 6.01805C29.8447 5.60014 29.6895 5.26582 29.5342 5.01507C29.5223 5.00313 29.5223 4.99119 29.5103 4.97925L35.7909 11.2598C37.9283 13.3613 36.8895 18.0181 33.6059 22.9375Z" fill="#002654"/>
<path d="M30.7762 8.16728C30.7762 9.22996 30.5135 10.5315 29.9881 11.9285C29.4627 13.3255 28.6866 14.8419 27.6836 16.3941C27.612 16.5135 27.5284 16.6329 27.4568 16.7404C26.4896 18.1732 25.3314 19.6419 24.006 21.0628C22.5612 22.6031 20.9135 24.1315 19.0627 25.5046C18.1433 26.1971 17.1642 26.8419 16.1374 27.4389H16.1254C15.7075 27.6777 15.2896 27.9046 14.8598 28.1195C14.5612 28.2747 14.2508 28.418 13.9523 28.5494C13.606 28.7046 13.2598 28.8479 12.9135 28.9792C12.7941 29.027 12.6747 29.0628 12.5672 29.1106C11.8986 29.3374 11.206 29.5285 10.5015 29.6479C10.1433 29.7076 9.77319 29.7434 9.40304 29.7673C8.80602 29.7912 8.19707 29.7434 7.63587 29.5762C7.34931 29.4927 7.07468 29.3852 6.82393 29.2419C6.76423 29.2061 6.69259 29.1703 6.63289 29.1344L6.54931 29.0747L6.4299 29.015C6.3702 28.9673 6.32244 28.9195 6.26274 28.8837C6.23886 28.8598 6.21498 28.8359 6.17916 28.8121L6.10751 28.7404L6.02393 28.6568C6.00005 28.6329 5.96423 28.5971 5.95229 28.5732C5.90453 28.5135 5.85677 28.4658 5.82095 28.4061L5.80901 28.3941L5.74931 28.3225L5.6896 28.227C5.65378 28.1673 5.61796 28.1076 5.5702 28.0359C5.42692 27.7852 5.31946 27.5106 5.23587 27.224C5.06871 26.6628 5.02095 26.0538 5.04483 25.4568C5.05677 25.0867 5.10453 24.7285 5.16423 24.3583C5.28363 23.6538 5.47468 22.9613 5.70154 22.2927C5.73737 22.1732 5.78513 22.0538 5.83289 21.9464C5.96423 21.5882 6.10751 21.2419 6.26274 20.9076C6.39408 20.5971 6.53737 20.2986 6.69259 20.0001C6.90752 19.5703 7.13438 19.1524 7.37319 18.7344C7.37319 18.7344 7.37319 18.7344 7.37319 18.7225C7.9702 17.6956 8.61498 16.7165 9.30752 15.7971C10.6806 13.9464 12.209 12.2986 13.7493 10.8538C15.1821 9.51653 16.6389 8.35832 18.0717 7.4031C18.1911 7.31952 18.3105 7.24787 18.418 7.17623C19.9702 6.17325 21.4747 5.39713 22.8836 4.87175C24.3045 4.3225 25.5941 4.05981 26.6568 4.05981C27.1941 4.05981 27.6598 4.11952 28.0538 4.22698C28.4478 4.33444 28.7702 4.46578 29.009 4.60907C29.1404 4.69265 29.2598 4.76429 29.3553 4.83593C29.4269 4.89564 29.4866 4.9434 29.5344 4.97922C29.5941 5.02698 29.6299 5.0628 29.6538 5.08668C29.6777 5.11056 29.6896 5.1225 29.6896 5.1225C29.6896 5.1225 29.7015 5.14638 29.7254 5.15832C29.7493 5.1822 29.7971 5.22996 29.8329 5.27772C29.9284 5.38519 30.0598 5.55235 30.203 5.8031C30.3463 6.0419 30.4896 6.36429 30.5851 6.75832C30.7165 7.16429 30.7762 7.6419 30.7762 8.16728Z" fill="#002654"/>
<path d="M13.2843 17.3016C13.3082 17.5881 13.2724 17.9344 13.1769 18.3165C13.0814 18.6986 12.9381 19.1165 12.7351 19.5463C12.7232 19.5822 12.6993 19.606 12.6873 19.6419C12.4963 20.0359 12.2575 20.4419 11.9829 20.8478C11.6843 21.2777 11.3261 21.7195 10.9321 22.1135C10.7291 22.3165 10.5261 22.5075 10.2993 22.6747C10.2038 22.7463 10.1202 22.818 10.0246 22.8777C9.95301 22.9255 9.8933 22.9613 9.82166 23.009C9.75002 23.0568 9.66644 23.1046 9.5948 23.1404C9.57092 23.1523 9.54704 23.1643 9.51121 23.1762C9.35599 23.2478 9.20077 23.3075 9.04554 23.3553C8.96196 23.3792 8.87838 23.3911 8.7948 23.4031C8.65151 23.415 8.52017 23.415 8.38883 23.3792C8.31718 23.3672 8.25748 23.3434 8.19778 23.3075C8.18584 23.2956 8.16196 23.2956 8.15002 23.2837L8.12614 23.2717L8.10226 23.2598C8.09032 23.2478 8.07838 23.2359 8.06644 23.224C8.0545 23.224 8.0545 23.212 8.04256 23.2001L8.01868 23.1881L7.9948 23.1643C7.98286 23.1523 7.98286 23.1523 7.97092 23.1404C7.95898 23.1284 7.94704 23.1165 7.9351 23.1046L7.92315 23.0807L7.91121 23.0568C7.89927 23.0449 7.88733 23.021 7.87539 23.009C7.83957 22.9493 7.80375 22.8777 7.77987 22.806C7.73211 22.6628 7.70823 22.4956 7.69629 22.3404C7.69629 22.2449 7.69629 22.1493 7.69629 22.0419C7.70823 21.8508 7.74405 21.6717 7.77987 21.4807C7.79181 21.4449 7.79181 21.421 7.80375 21.3852C7.82763 21.2896 7.85151 21.1941 7.87539 21.0986C7.89927 21.015 7.92315 20.9314 7.95898 20.8478C7.9948 20.7284 8.04256 20.609 8.09032 20.5016C8.20972 20.215 8.34107 19.9523 8.47241 19.6896C8.74704 19.1762 9.06942 18.7105 9.39181 18.3046C9.69032 17.9225 10.0127 17.5881 10.3232 17.3135C10.347 17.2896 10.3709 17.2657 10.3948 17.2419C10.7291 16.9434 11.0635 16.7165 11.3739 16.5493C11.6843 16.3822 11.9829 16.2986 12.2217 16.2747C12.3411 16.2628 12.4605 16.2747 12.544 16.2986C12.6396 16.3225 12.7112 16.3463 12.7709 16.3822C12.8067 16.406 12.8306 16.418 12.8545 16.4299C12.8784 16.4419 12.8903 16.4538 12.9023 16.4657C12.9142 16.4777 12.9261 16.4896 12.9381 16.4896L12.95 16.5016C12.95 16.5016 12.95 16.5016 12.962 16.5135C12.9739 16.5255 12.9739 16.5254 12.9858 16.5493C13.0097 16.5732 13.0455 16.621 13.0814 16.6807C13.1172 16.7404 13.153 16.824 13.1888 16.9314C13.2605 17.0389 13.2843 17.1583 13.2843 17.3016Z" fill="white"/>
</g>
<defs>
<clipPath id="clip0_841_20345">
<rect width="33.8269" height="31.8806" fill="white" transform="translate(3.08691 4.05981)"/>
</clipPath>
</defs>
</svg>
