<svg width="198" height="44" viewBox="0 0 198 44" fill="none" xmlns="http://www.w3.org/2000/svg">
<path d="M0 16C0 7.16344 7.16344 0 16 0H198V28C198 36.8366 190.837 44 182 44H0V16Z" fill="#6BB945"/>
<path d="M16.8807 28V16.3636H21.733C22.6042 16.3636 23.3333 16.4867 23.9205 16.733C24.5114 16.9792 24.9545 17.3239 25.25 17.767C25.5492 18.2102 25.6989 18.7235 25.6989 19.3068C25.6989 19.75 25.6061 20.1458 25.4205 20.4943C25.2348 20.839 24.9792 21.125 24.6534 21.3523C24.3277 21.5795 23.9508 21.7386 23.5227 21.8295V21.9432C23.9924 21.9659 24.4261 22.0928 24.8239 22.3239C25.2254 22.5549 25.5473 22.8769 25.7898 23.2898C26.0322 23.6989 26.1534 24.1837 26.1534 24.7443C26.1534 25.3693 25.9943 25.928 25.6761 26.4205C25.358 26.9091 24.8977 27.2955 24.2955 27.5795C23.6932 27.8598 22.9621 28 22.1023 28H16.8807ZM19.6932 25.733H21.4318C22.0417 25.733 22.4905 25.6174 22.7784 25.3864C23.0701 25.1553 23.2159 24.8333 23.2159 24.4205C23.2159 24.1212 23.1458 23.8636 23.0057 23.6477C22.8655 23.428 22.6667 23.2595 22.4091 23.142C22.1515 23.0208 21.8428 22.9602 21.483 22.9602H19.6932V25.733ZM19.6932 21.1477H21.25C21.5568 21.1477 21.8295 21.0966 22.0682 20.9943C22.3068 20.892 22.4924 20.7443 22.625 20.5511C22.7614 20.358 22.8295 20.125 22.8295 19.8523C22.8295 19.4621 22.6913 19.1553 22.4148 18.9318C22.1383 18.7083 21.7652 18.5966 21.2955 18.5966H19.6932V21.1477ZM30.6059 28.1477C30.0491 28.1477 29.5548 28.0549 29.123 27.8693C28.6949 27.6799 28.3559 27.3958 28.1059 27.017C27.8597 26.6345 27.7366 26.1553 27.7366 25.5795C27.7366 25.0947 27.8218 24.6856 27.9923 24.3523C28.1627 24.0189 28.3976 23.7481 28.6968 23.5398C28.9961 23.3314 29.3408 23.1742 29.7309 23.0682C30.1211 22.9583 30.5377 22.8845 30.9809 22.8466C31.4771 22.8011 31.8767 22.7538 32.1798 22.7045C32.4828 22.6515 32.7025 22.5777 32.8389 22.483C32.979 22.3845 33.0491 22.2462 33.0491 22.0682V22.0398C33.0491 21.7481 32.9487 21.5227 32.748 21.3636C32.5472 21.2045 32.2764 21.125 31.9355 21.125C31.568 21.125 31.2726 21.2045 31.0491 21.3636C30.8256 21.5227 30.6836 21.7424 30.623 22.0227L28.0605 21.9318C28.1362 21.4015 28.3313 20.928 28.6457 20.5114C28.9639 20.0909 29.3995 19.7614 29.9525 19.5227C30.5093 19.2803 31.1779 19.1591 31.9582 19.1591C32.515 19.1591 33.0283 19.2254 33.498 19.358C33.9677 19.4867 34.3767 19.6761 34.7252 19.9261C35.0737 20.1723 35.3427 20.4754 35.532 20.8352C35.7252 21.1951 35.8218 21.6061 35.8218 22.0682V28H33.2082V26.7841H33.14C32.9847 27.0795 32.7858 27.3295 32.5434 27.5341C32.3048 27.7386 32.0226 27.892 31.6968 27.9943C31.3748 28.0966 31.0112 28.1477 30.6059 28.1477ZM31.4639 26.3295C31.7631 26.3295 32.032 26.2689 32.2707 26.1477C32.5131 26.0265 32.7063 25.8598 32.8502 25.6477C32.9942 25.4318 33.0661 25.1818 33.0661 24.8977V24.0682C32.9866 24.1098 32.89 24.1477 32.7764 24.1818C32.6665 24.2159 32.5453 24.2481 32.4127 24.2784C32.2802 24.3087 32.1438 24.3352 32.0036 24.358C31.8635 24.3807 31.729 24.4015 31.6002 24.4205C31.3389 24.4621 31.1154 24.5265 30.9298 24.6136C30.748 24.7008 30.6078 24.8144 30.5093 24.9545C30.4146 25.0909 30.3673 25.2538 30.3673 25.4432C30.3673 25.7311 30.4695 25.9508 30.6741 26.1023C30.8824 26.2538 31.1457 26.3295 31.4639 26.3295ZM42.2345 28.1648C41.3141 28.1648 40.5243 27.9754 39.8652 27.5966C39.2099 27.2178 38.7061 26.6913 38.3539 26.017C38.0016 25.339 37.8255 24.5549 37.8255 23.6648C37.8255 22.7708 38.0016 21.9867 38.3539 21.3125C38.7099 20.6345 39.2156 20.1061 39.8709 19.7273C40.53 19.3485 41.316 19.1591 42.2289 19.1591C43.0357 19.1591 43.7383 19.3049 44.3368 19.5966C44.9391 19.8883 45.4088 20.3011 45.7459 20.8352C46.0868 21.3655 46.2667 21.9886 46.2857 22.7045H43.6891C43.6361 22.2576 43.4845 21.9072 43.2345 21.6534C42.9883 21.3996 42.6664 21.2727 42.2686 21.2727C41.9467 21.2727 41.6645 21.3636 41.422 21.5455C41.1796 21.7235 40.9902 21.9886 40.8539 22.3409C40.7213 22.6894 40.655 23.1212 40.655 23.6364C40.655 24.1515 40.7213 24.5871 40.8539 24.9432C40.9902 25.2955 41.1796 25.5625 41.422 25.7443C41.6645 25.9223 41.9467 26.0114 42.2686 26.0114C42.5262 26.0114 42.7535 25.9564 42.9505 25.8466C43.1512 25.7367 43.316 25.5758 43.4448 25.3636C43.5736 25.1477 43.655 24.8864 43.6891 24.5795H46.2857C46.2592 25.2992 46.0792 25.928 45.7459 26.4659C45.4164 27.0038 44.9523 27.4223 44.3539 27.7216C43.7592 28.017 43.0527 28.1648 42.2345 28.1648ZM50.8078 28.1477C50.251 28.1477 49.7566 28.0549 49.3248 27.8693C48.8968 27.6799 48.5578 27.3958 48.3078 27.017C48.0616 26.6345 47.9385 26.1553 47.9385 25.5795C47.9385 25.0947 48.0237 24.6856 48.1941 24.3523C48.3646 24.0189 48.5995 23.7481 48.8987 23.5398C49.1979 23.3314 49.5426 23.1742 49.9328 23.0682C50.3229 22.9583 50.7396 22.8845 51.1828 22.8466C51.679 22.8011 52.0786 22.7538 52.3816 22.7045C52.6847 22.6515 52.9044 22.5777 53.0407 22.483C53.1809 22.3845 53.251 22.2462 53.251 22.0682V22.0398C53.251 21.7481 53.1506 21.5227 52.9498 21.3636C52.7491 21.2045 52.4782 21.125 52.1373 21.125C51.7699 21.125 51.4745 21.2045 51.251 21.3636C51.0275 21.5227 50.8854 21.7424 50.8248 22.0227L48.2623 21.9318C48.3381 21.4015 48.5332 20.928 48.8476 20.5114C49.1657 20.0909 49.6013 19.7614 50.1544 19.5227C50.7112 19.2803 51.3798 19.1591 52.1601 19.1591C52.7169 19.1591 53.2301 19.2254 53.6998 19.358C54.1695 19.4867 54.5786 19.6761 54.9271 19.9261C55.2756 20.1723 55.5445 20.4754 55.7339 20.8352C55.9271 21.1951 56.0237 21.6061 56.0237 22.0682V28H53.4101V26.7841H53.3419C53.1866 27.0795 52.9877 27.3295 52.7453 27.5341C52.5066 27.7386 52.2245 27.892 51.8987 27.9943C51.5767 28.0966 51.2131 28.1477 50.8078 28.1477ZM51.6657 26.3295C51.965 26.3295 52.2339 26.2689 52.4726 26.1477C52.715 26.0265 52.9082 25.8598 53.0521 25.6477C53.196 25.4318 53.268 25.1818 53.268 24.8977V24.0682C53.1885 24.1098 53.0919 24.1477 52.9782 24.1818C52.8684 24.2159 52.7472 24.2481 52.6146 24.2784C52.482 24.3087 52.3457 24.3352 52.2055 24.358C52.0654 24.3807 51.9309 24.4015 51.8021 24.4205C51.5407 24.4621 51.3173 24.5265 51.1316 24.6136C50.9498 24.7008 50.8097 24.8144 50.7112 24.9545C50.6165 25.0909 50.5691 25.2538 50.5691 25.4432C50.5691 25.7311 50.6714 25.9508 50.876 26.1023C51.0843 26.2538 51.3476 26.3295 51.6657 26.3295ZM68.7298 19.8523C68.692 19.4356 68.5234 19.1117 68.2241 18.8807C67.9287 18.6458 67.5063 18.5284 66.9571 18.5284C66.5935 18.5284 66.2904 18.5758 66.048 18.6705C65.8056 18.7652 65.6238 18.8958 65.5026 19.0625C65.3813 19.2254 65.3188 19.4129 65.3151 19.625C65.3075 19.7992 65.3416 19.9527 65.4173 20.0852C65.4969 20.2178 65.6105 20.3352 65.7582 20.4375C65.9098 20.536 66.0916 20.6231 66.3037 20.6989C66.5158 20.7746 66.7545 20.8409 67.0196 20.8977L68.0196 21.125C68.5954 21.25 69.1029 21.4167 69.5423 21.625C69.9855 21.8333 70.3567 22.0814 70.656 22.3693C70.959 22.6572 71.1882 22.9886 71.3435 23.3636C71.4988 23.7386 71.5783 24.1591 71.5821 24.625C71.5783 25.3598 71.3927 25.9905 71.0253 26.517C70.6579 27.0436 70.1295 27.447 69.4401 27.7273C68.7545 28.0076 67.9268 28.1477 66.9571 28.1477C65.9836 28.1477 65.1351 28.0019 64.4116 27.7102C63.6882 27.4186 63.1257 26.9754 62.7241 26.3807C62.3226 25.786 62.1162 25.0341 62.1048 24.125H64.798C64.8207 24.5 64.9211 24.8125 65.0991 25.0625C65.2772 25.3125 65.5215 25.5019 65.8321 25.6307C66.1465 25.7595 66.5101 25.8239 66.923 25.8239C67.3018 25.8239 67.6238 25.7727 67.8889 25.6705C68.1579 25.5682 68.3643 25.4261 68.5082 25.2443C68.6522 25.0625 68.726 24.8542 68.7298 24.6193C68.726 24.3996 68.6579 24.2121 68.5253 24.0568C68.3927 23.8977 68.1882 23.7614 67.9116 23.6477C67.6389 23.5303 67.2904 23.4223 66.8662 23.3239L65.6503 23.0398C64.6427 22.8087 63.8491 22.4356 63.2696 21.9205C62.6901 21.4015 62.4022 20.7008 62.406 19.8182C62.4022 19.0985 62.5954 18.4678 62.9855 17.9261C63.3757 17.3845 63.9154 16.9621 64.6048 16.6591C65.2942 16.3561 66.0802 16.2045 66.9628 16.2045C67.8643 16.2045 68.6465 16.358 69.3094 16.6648C69.976 16.9678 70.4931 17.3939 70.8605 17.9432C71.2279 18.4924 71.4154 19.1288 71.423 19.8523H68.7298ZM77.7221 28.1648C76.8092 28.1648 76.0213 27.9848 75.3585 27.625C74.6994 27.2614 74.1918 26.7443 73.8357 26.0739C73.4835 25.3996 73.3073 24.5985 73.3073 23.6705C73.3073 22.7689 73.4854 21.9811 73.8414 21.3068C74.1975 20.6288 74.6994 20.1023 75.3471 19.7273C75.9948 19.3485 76.7581 19.1591 77.6369 19.1591C78.2581 19.1591 78.8263 19.2557 79.3414 19.4489C79.8566 19.642 80.3016 19.928 80.6766 20.3068C81.0516 20.6856 81.3433 21.1534 81.5516 21.7102C81.76 22.2633 81.8641 22.8977 81.8641 23.6136V24.3068H74.2789V22.6932H79.2789C79.2751 22.3977 79.2051 22.1345 79.0687 21.9034C78.9323 21.6723 78.7448 21.4924 78.5062 21.3636C78.2713 21.2311 78.0005 21.1648 77.6937 21.1648C77.3831 21.1648 77.1047 21.2348 76.8585 21.375C76.6123 21.5114 76.4172 21.6989 76.2732 21.9375C76.1293 22.1723 76.0535 22.4394 76.046 22.7386V24.3807C76.046 24.7367 76.116 25.0492 76.2562 25.3182C76.3963 25.5833 76.5952 25.7898 76.8528 25.9375C77.1104 26.0852 77.4172 26.1591 77.7732 26.1591C78.0195 26.1591 78.2429 26.125 78.4437 26.0568C78.6445 25.9886 78.8168 25.8883 78.9607 25.7557C79.1047 25.6231 79.2126 25.4602 79.2846 25.267L81.8357 25.3409C81.7297 25.9129 81.4967 26.411 81.1369 26.8352C80.7808 27.2557 80.313 27.5833 79.7335 27.8182C79.1539 28.0492 78.4835 28.1648 77.7221 28.1648ZM86.7016 16.3636V28H83.9232V16.3636H86.7016ZM93.1896 28.1648C92.2767 28.1648 91.4888 27.9848 90.826 27.625C90.1669 27.2614 89.6593 26.7443 89.3032 26.0739C88.951 25.3996 88.7748 24.5985 88.7748 23.6705C88.7748 22.7689 88.9529 21.9811 89.3089 21.3068C89.665 20.6288 90.1669 20.1023 90.8146 19.7273C91.4623 19.3485 92.2256 19.1591 93.1044 19.1591C93.7256 19.1591 94.2938 19.2557 94.8089 19.4489C95.3241 19.642 95.7692 19.928 96.1442 20.3068C96.5192 20.6856 96.8108 21.1534 97.0192 21.7102C97.2275 22.2633 97.3317 22.8977 97.3317 23.6136V24.3068H89.7464V22.6932H94.7464C94.7426 22.3977 94.6726 22.1345 94.5362 21.9034C94.3998 21.6723 94.2123 21.4924 93.9737 21.3636C93.7388 21.2311 93.468 21.1648 93.1612 21.1648C92.8506 21.1648 92.5722 21.2348 92.326 21.375C92.0798 21.5114 91.8847 21.6989 91.7407 21.9375C91.5968 22.1723 91.521 22.4394 91.5135 22.7386V24.3807C91.5135 24.7367 91.5835 25.0492 91.7237 25.3182C91.8638 25.5833 92.0627 25.7898 92.3203 25.9375C92.5779 26.0852 92.8847 26.1591 93.2407 26.1591C93.487 26.1591 93.7104 26.125 93.9112 26.0568C94.112 25.9886 94.2843 25.8883 94.4282 25.7557C94.5722 25.6231 94.6801 25.4602 94.7521 25.267L97.3032 25.3409C97.1972 25.9129 96.9642 26.411 96.6044 26.8352C96.2483 27.2557 95.7805 27.5833 95.201 27.8182C94.6214 28.0492 93.951 28.1648 93.1896 28.1648ZM102.169 23.0227V28H99.3907V19.2727H102.033V20.875H102.129C102.323 20.3409 102.652 19.9223 103.118 19.6193C103.584 19.3125 104.139 19.1591 104.783 19.1591C105.396 19.1591 105.929 19.2973 106.379 19.5739C106.834 19.8466 107.186 20.2292 107.436 20.7216C107.69 21.2102 107.815 21.7822 107.811 22.4375V28H105.033V22.983C105.037 22.4981 104.913 22.1193 104.663 21.8466C104.417 21.5739 104.074 21.4375 103.635 21.4375C103.343 21.4375 103.086 21.5019 102.862 21.6307C102.643 21.7557 102.472 21.9356 102.351 22.1705C102.233 22.4053 102.173 22.6894 102.169 23.0227ZM114.239 31.4545C113.41 31.4545 112.7 31.339 112.109 31.108C111.518 30.8769 111.054 30.5606 110.717 30.1591C110.38 29.7576 110.177 29.303 110.109 28.7955L112.739 28.6477C112.789 28.8258 112.88 28.9811 113.012 29.1136C113.149 29.2462 113.325 29.3485 113.541 29.4205C113.76 29.4924 114.018 29.5284 114.313 29.5284C114.779 29.5284 115.164 29.4148 115.467 29.1875C115.774 28.964 115.927 28.572 115.927 28.0114V26.4773H115.83C115.721 26.7462 115.554 26.9867 115.33 27.1989C115.107 27.411 114.829 27.5777 114.495 27.6989C114.166 27.8201 113.787 27.8807 113.359 27.8807C112.722 27.8807 112.139 27.733 111.609 27.4375C111.082 27.1383 110.66 26.6761 110.342 26.0511C110.027 25.4223 109.87 24.6136 109.87 23.625C109.87 22.6061 110.033 21.767 110.359 21.108C110.685 20.4451 111.111 19.9545 111.637 19.6364C112.168 19.3182 112.738 19.1591 113.347 19.1591C113.806 19.1591 114.198 19.2386 114.524 19.3977C114.853 19.553 115.124 19.7538 115.336 20C115.548 20.2462 115.709 20.5019 115.819 20.767H115.899V19.2727H118.666V28.0341C118.666 28.7727 118.48 29.3958 118.109 29.9034C117.738 30.411 117.219 30.7955 116.552 31.0568C115.885 31.322 115.114 31.4545 114.239 31.4545ZM114.325 25.858C114.662 25.858 114.95 25.7689 115.188 25.5909C115.427 25.4129 115.611 25.1572 115.739 24.8239C115.868 24.4905 115.933 24.0909 115.933 23.625C115.933 23.1515 115.868 22.7443 115.739 22.4034C115.614 22.0587 115.431 21.7936 115.188 21.608C114.95 21.4223 114.662 21.3295 114.325 21.3295C113.98 21.3295 113.688 21.4242 113.45 21.6136C113.211 21.803 113.029 22.0701 112.904 22.4148C112.783 22.7557 112.722 23.1591 112.722 23.625C112.722 24.0909 112.785 24.4905 112.91 24.8239C113.035 25.1572 113.215 25.4129 113.45 25.5909C113.688 25.7689 113.98 25.858 114.325 25.858ZM123.583 25.7102L123.594 22.3977H123.98L126.435 19.2727H129.583L125.935 23.75H125.202L123.583 25.7102ZM121.077 28V16.3636H123.855V28H121.077ZM126.497 28L124.213 24.375L126.043 22.4034L129.708 28H126.497ZM133.677 28.1477C133.12 28.1477 132.626 28.0549 132.194 27.8693C131.766 27.6799 131.427 27.3958 131.177 27.017C130.931 26.6345 130.808 26.1553 130.808 25.5795C130.808 25.0947 130.893 24.6856 131.064 24.3523C131.234 24.0189 131.469 23.7481 131.768 23.5398C132.067 23.3314 132.412 23.1742 132.802 23.0682C133.192 22.9583 133.609 22.8845 134.052 22.8466C134.548 22.8011 134.948 22.7538 135.251 22.7045C135.554 22.6515 135.774 22.5777 135.91 22.483C136.05 22.3845 136.12 22.2462 136.12 22.0682V22.0398C136.12 21.7481 136.02 21.5227 135.819 21.3636C135.618 21.2045 135.348 21.125 135.007 21.125C134.639 21.125 134.344 21.2045 134.12 21.3636C133.897 21.5227 133.755 21.7424 133.694 22.0227L131.132 21.9318C131.207 21.4015 131.403 20.928 131.717 20.5114C132.035 20.0909 132.471 19.7614 133.024 19.5227C133.581 19.2803 134.249 19.1591 135.029 19.1591C135.586 19.1591 136.1 19.2254 136.569 19.358C137.039 19.4867 137.448 19.6761 137.796 19.9261C138.145 20.1723 138.414 20.4754 138.603 20.8352C138.796 21.1951 138.893 21.6061 138.893 22.0682V28H136.279V26.7841H136.211C136.056 27.0795 135.857 27.3295 135.615 27.5341C135.376 27.7386 135.094 27.892 134.768 27.9943C134.446 28.0966 134.082 28.1477 133.677 28.1477ZM134.535 26.3295C134.834 26.3295 135.103 26.2689 135.342 26.1477C135.584 26.0265 135.778 25.8598 135.921 25.6477C136.065 25.4318 136.137 25.1818 136.137 24.8977V24.0682C136.058 24.1098 135.961 24.1477 135.848 24.1818C135.738 24.2159 135.617 24.2481 135.484 24.2784C135.351 24.3087 135.215 24.3352 135.075 24.358C134.935 24.3807 134.8 24.4015 134.671 24.4205C134.41 24.4621 134.187 24.5265 134.001 24.6136C133.819 24.7008 133.679 24.8144 133.581 24.9545C133.486 25.0909 133.439 25.2538 133.439 25.4432C133.439 25.7311 133.541 25.9508 133.745 26.1023C133.954 26.2538 134.217 26.3295 134.535 26.3295ZM141.232 31.2727V19.2727H143.982V20.767H144.067C144.181 20.5019 144.342 20.2462 144.55 20C144.762 19.7538 145.031 19.553 145.357 19.3977C145.686 19.2386 146.08 19.1591 146.539 19.1591C147.145 19.1591 147.711 19.3182 148.238 19.6364C148.768 19.9545 149.196 20.4451 149.522 21.108C149.847 21.7708 150.01 22.6155 150.01 23.642C150.01 24.6307 149.853 25.4583 149.539 26.125C149.228 26.7917 148.808 27.2917 148.277 27.625C147.751 27.9583 147.166 28.125 146.522 28.125C146.082 28.125 145.702 28.053 145.38 27.9091C145.058 27.7652 144.787 27.5758 144.567 27.3409C144.351 27.1061 144.185 26.8542 144.067 26.5852H144.01V31.2727H141.232ZM143.954 23.6364C143.954 24.1061 144.016 24.5152 144.141 24.8636C144.27 25.2121 144.454 25.483 144.692 25.6761C144.935 25.8655 145.224 25.9602 145.561 25.9602C145.902 25.9602 146.192 25.8655 146.431 25.6761C146.669 25.483 146.849 25.2121 146.971 24.8636C147.096 24.5152 147.158 24.1061 147.158 23.6364C147.158 23.1667 147.096 22.7595 146.971 22.4148C146.849 22.0701 146.669 21.803 146.431 21.6136C146.196 21.4242 145.906 21.3295 145.561 21.3295C145.221 21.3295 144.931 21.4223 144.692 21.608C144.454 21.7936 144.27 22.0587 144.141 22.4034C144.016 22.7481 143.954 23.1591 143.954 23.6364ZM154.885 23.0227V28H152.106V19.2727H154.748V20.875H154.845C155.038 20.3409 155.368 19.9223 155.834 19.6193C156.299 19.3125 156.854 19.1591 157.498 19.1591C158.112 19.1591 158.644 19.2973 159.095 19.5739C159.549 19.8466 159.902 20.2292 160.152 20.7216C160.406 21.2102 160.531 21.7822 160.527 22.4375V28H157.748V22.983C157.752 22.4981 157.629 22.1193 157.379 21.8466C157.133 21.5739 156.79 21.4375 156.351 21.4375C156.059 21.4375 155.801 21.5019 155.578 21.6307C155.358 21.7557 155.188 21.9356 155.067 22.1705C154.949 22.4053 154.889 22.6894 154.885 23.0227ZM164.273 31.2727C163.94 31.2727 163.626 31.2462 163.33 31.1932C163.035 31.1439 162.781 31.0777 162.569 30.9943L163.182 28.9773C163.455 29.0682 163.701 29.1212 163.921 29.1364C164.145 29.1515 164.336 29.1155 164.495 29.0284C164.658 28.9451 164.783 28.7955 164.87 28.5795L164.978 28.3182L161.876 19.2727H164.785L166.393 25.5H166.484L168.114 19.2727H171.04L167.751 28.8352C167.591 29.3125 167.366 29.733 167.074 30.0966C166.787 30.464 166.413 30.7519 165.955 30.9602C165.501 31.1686 164.94 31.2727 164.273 31.2727ZM174.972 28.1477C174.415 28.1477 173.92 28.0549 173.489 27.8693C173.061 27.6799 172.722 27.3958 172.472 27.017C172.225 26.6345 172.102 26.1553 172.102 25.5795C172.102 25.0947 172.187 24.6856 172.358 24.3523C172.528 24.0189 172.763 23.7481 173.062 23.5398C173.362 23.3314 173.706 23.1742 174.097 23.0682C174.487 22.9583 174.903 22.8845 175.347 22.8466C175.843 22.8011 176.242 22.7538 176.545 22.7045C176.848 22.6515 177.068 22.5777 177.204 22.483C177.345 22.3845 177.415 22.2462 177.415 22.0682V22.0398C177.415 21.7481 177.314 21.5227 177.114 21.3636C176.913 21.2045 176.642 21.125 176.301 21.125C175.934 21.125 175.638 21.2045 175.415 21.3636C175.191 21.5227 175.049 21.7424 174.989 22.0227L172.426 21.9318C172.502 21.4015 172.697 20.928 173.011 20.5114C173.329 20.0909 173.765 19.7614 174.318 19.5227C174.875 19.2803 175.544 19.1591 176.324 19.1591C176.881 19.1591 177.394 19.2254 177.864 19.358C178.333 19.4867 178.742 19.6761 179.091 19.9261C179.439 20.1723 179.708 20.4754 179.898 20.8352C180.091 21.1951 180.187 21.6061 180.187 22.0682V28H177.574V26.7841H177.506C177.35 27.0795 177.151 27.3295 176.909 27.5341C176.67 27.7386 176.388 27.892 176.062 27.9943C175.74 28.0966 175.377 28.1477 174.972 28.1477ZM175.829 26.3295C176.129 26.3295 176.398 26.2689 176.636 26.1477C176.879 26.0265 177.072 25.8598 177.216 25.6477C177.36 25.4318 177.432 25.1818 177.432 24.8977V24.0682C177.352 24.1098 177.256 24.1477 177.142 24.1818C177.032 24.2159 176.911 24.2481 176.778 24.2784C176.646 24.3087 176.509 24.3352 176.369 24.358C176.229 24.3807 176.095 24.4015 175.966 24.4205C175.704 24.4621 175.481 24.5265 175.295 24.6136C175.114 24.7008 174.973 24.8144 174.875 24.9545C174.78 25.0909 174.733 25.2538 174.733 25.4432C174.733 25.7311 174.835 25.9508 175.04 26.1023C175.248 26.2538 175.511 26.3295 175.829 26.3295Z" fill="white"/>
</svg>
